<?xml version="1.0" encoding="UTF-8"?>
<!DOCTYPE svg PUBLIC "-//W3C//DTD SVG 1.1//EN" "http://www.w3.org/Graphics/SVG/1.1/DTD/svg11.dtd">
<svg xmlns="http://www.w3.org/2000/svg" version="1.1" width="420px" height="420px" style="shape-rendering:geometricPrecision; text-rendering:geometricPrecision; image-rendering:optimizeQuality; fill-rule:evenodd; clip-rule:evenodd" xmlns:xlink="http://www.w3.org/1999/xlink">
<g><path style="opacity:1" fill="#51392c" d="M 166.5,12.5 C 166.5,12.8333 166.5,13.1667 166.5,13.5C 163.462,15.1118 160.629,17.1118 158,19.5C 155.284,26.3146 152.951,33.3146 151,40.5C 145.186,46.8016 139.853,53.4683 135,60.5C 131.232,69.6311 128.399,78.9645 126.5,88.5C 116.701,81.8408 106.034,77.0075 94.5,74C 92.7811,72.1295 91.7811,69.9628 91.5,67.5C 91.5,66.8333 91.5,66.1667 91.5,65.5C 91.6596,63.847 92.3263,62.5137 93.5,61.5C 93.5494,64.0991 94.5494,66.2658 96.5,68C 105.724,71.4565 114.724,75.1231 123.5,79C 128.058,64.3749 135.558,51.5416 146,40.5C 148.393,35.3217 150.393,29.9884 152,24.5C 153.5,23 155,21.5 156.5,20C 155.906,19.5357 155.239,19.369 154.5,19.5C 158.003,16.333 162.003,13.9996 166.5,12.5 Z"/></g>
<g><path style="opacity:1" fill="#674d3f" d="M 146.5,24.5 C 148.225,24.8425 148.725,25.8425 148,27.5C 144.917,31.4004 142.584,35.7337 141,40.5C 134.587,47.959 129.254,56.2923 125,65.5C 122.656,69.6166 119.489,70.4499 115.5,68C 110.377,64.9561 105.044,62.2895 99.5,60C 98.6433,59.3109 97.9767,58.4776 97.5,57.5C 98.9524,56.0603 99.9524,54.3936 100.5,52.5C 102.569,49.4275 105.236,47.0941 108.5,45.5C 107.19,47.1477 105.857,48.8144 104.5,50.5C 107.432,51.8175 110.432,52.9842 113.5,54C 115.622,57.4954 118.622,59.1621 122.5,59C 126.792,50.2421 131.959,42.0754 138,34.5C 140.739,31.8824 143.573,29.3824 146.5,27C 145.207,26.51 143.873,26.3433 142.5,26.5C 143.514,25.3263 144.847,24.6596 146.5,24.5 Z"/></g>
<g><path style="opacity:1" fill="#6e5346" d="M 142.5,26.5 C 143.873,26.3433 145.207,26.51 146.5,27C 143.573,29.3824 140.739,31.8824 138,34.5C 131.959,42.0754 126.792,50.2421 122.5,59C 118.622,59.1621 115.622,57.4954 113.5,54C 110.432,52.9842 107.432,51.8175 104.5,50.5C 105.857,48.8144 107.19,47.1477 108.5,45.5C 118.273,36.6077 129.606,30.2744 142.5,26.5 Z"/></g>
<g><path style="opacity:1" fill="#412c20" d="M 233.5,46.5 C 232.425,45.4376 231.425,45.4376 230.5,46.5C 232.298,49.2893 232.798,52.2893 232,55.5C 230.414,57.6705 229.08,60.0038 228,62.5C 226.83,69.86 225.496,77.1934 224,84.5C 222.426,87.1362 220.593,89.4696 218.5,91.5C 220.644,83.9262 221.644,76.0929 221.5,68C 221.006,54.8107 220.339,41.644 219.5,28.5C 219.897,27.475 220.563,27.3083 221.5,28C 226.393,33.6272 230.393,39.7938 233.5,46.5 Z"/></g>
<g><path style="opacity:1" fill="#483226" d="M 205.5,11.5 C 204.709,20.4654 204.876,29.4654 206,38.5C 206.45,40.519 207.283,42.3523 208.5,44C 213.421,43.6871 216.255,45.8538 217,50.5C 217.983,63.2661 217.316,75.9328 215,88.5C 213.127,90.7089 210.96,92.5422 208.5,94C 198.389,96.287 188.389,95.9537 178.5,93C 169.783,92.8392 161.116,92.1725 152.5,91C 146.667,89.9243 142.001,87.091 138.5,82.5C 138.182,77.9677 138.515,73.6344 139.5,69.5C 139.5,72.1667 139.5,74.8333 139.5,77.5C 140.592,80.0631 142.258,82.2297 144.5,84C 156.598,87.6721 168.931,88.5054 181.5,86.5C 189.083,87.607 196.583,88.9403 204,90.5C 213.423,89.4834 216.257,84.6501 212.5,76C 213.24,72.0937 213.406,67.9271 213,63.5C 212.626,62.5838 212.126,61.7504 211.5,61C 205.643,59.6636 201.143,56.497 198,51.5C 198.241,46.7875 199.075,42.1208 200.5,37.5C 200.333,36.5 200.167,35.5 200,34.5C 195.856,32.8662 194.023,29.8662 194.5,25.5C 195.702,23.6075 197.035,21.7742 198.5,20C 196.5,19.3333 194.5,19.3333 192.5,20C 187.026,22.2359 182.026,25.2359 177.5,29C 174.937,30.0793 172.271,30.5793 169.5,30.5C 169.5,29.5 169.5,28.5 169.5,27.5C 180.249,22.7006 189.749,16.0339 198,7.5C 199.981,9.35912 200.981,11.6924 201,14.5C 201.5,13.5 202,12.5 202.5,11.5C 203.614,10.2241 204.614,10.2241 205.5,11.5 Z"/></g>
<g><path style="opacity:1" fill="#533b2e" d="M 194.5,25.5 C 194.023,29.8662 195.856,32.8662 200,34.5C 200.167,35.5 200.333,36.5 200.5,37.5C 199.075,42.1208 198.241,46.7875 198,51.5C 201.143,56.497 205.643,59.6636 211.5,61C 212.126,61.7504 212.626,62.5838 213,63.5C 213.406,67.9271 213.24,72.0937 212.5,76C 216.257,84.6501 213.423,89.4834 204,90.5C 196.583,88.9403 189.083,87.607 181.5,86.5C 168.931,88.5054 156.598,87.6721 144.5,84C 142.258,82.2297 140.592,80.0631 139.5,77.5C 150.117,82.9493 161.451,85.116 173.5,84C 180.93,79.5673 187.43,74.0673 193,67.5C 192.214,58.9163 193.714,50.583 197.5,42.5C 197.61,40.626 196.944,39.126 195.5,38C 191.746,36.5369 188.079,35.0369 184.5,33.5C 187.794,30.8442 191.127,28.1775 194.5,25.5 Z"/></g>
<g><path style="opacity:1" fill="#5d4437" d="M 154.5,19.5 C 155.239,19.369 155.906,19.5357 156.5,20C 155,21.5 153.5,23 152,24.5C 150.393,29.9884 148.393,35.3217 146,40.5C 135.558,51.5416 128.058,64.3749 123.5,79C 114.724,75.1231 105.724,71.4565 96.5,68C 94.5494,66.2658 93.5494,64.0991 93.5,61.5C 95.1108,57.9485 97.4442,54.9485 100.5,52.5C 99.9524,54.3936 98.9524,56.0603 97.5,57.5C 97.9767,58.4776 98.6433,59.3109 99.5,60C 105.044,62.2895 110.377,64.9561 115.5,68C 119.489,70.4499 122.656,69.6166 125,65.5C 129.254,56.2923 134.587,47.959 141,40.5C 142.584,35.7337 144.917,31.4004 148,27.5C 148.725,25.8425 148.225,24.8425 146.5,24.5C 148.794,22.347 151.46,20.6803 154.5,19.5 Z"/></g>
<g><path style="opacity:1" fill="#311f14" d="M 167.5,16.5 C 168.903,19.9085 169.57,23.5752 169.5,27.5C 169.5,28.5 169.5,29.5 169.5,30.5C 172.271,30.5793 174.937,30.0793 177.5,29C 182.026,25.2359 187.026,22.2359 192.5,20C 194.5,19.3333 196.5,19.3333 198.5,20C 197.035,21.7742 195.702,23.6075 194.5,25.5C 191.127,28.1775 187.794,30.8442 184.5,33.5C 175.06,38.3886 165.727,43.5552 156.5,49C 153.669,50.6657 151.336,52.8324 149.5,55.5C 147.167,55.8333 145.833,57.1667 145.5,59.5C 143.413,60.5846 142.08,62.2512 141.5,64.5C 140.069,65.7804 139.402,67.4471 139.5,69.5C 138.515,73.6344 138.182,77.9677 138.5,82.5C 139.008,85.8515 140.342,88.8515 142.5,91.5C 147.633,93.6174 152.967,95.1174 158.5,96C 169.579,96.4639 180.579,97.6305 191.5,99.5C 206.228,101.575 215.395,95.5746 219,81.5C 220.364,66.5947 219.197,51.928 215.5,37.5C 217.323,34.8132 218.657,31.8132 219.5,28.5C 220.339,41.644 221.006,54.8107 221.5,68C 221.644,76.0929 220.644,83.9262 218.5,91.5C 218.559,94.0488 217.559,96.0488 215.5,97.5C 223.777,101.648 232.111,101.481 240.5,97C 246.612,89.7787 248.112,81.612 245,72.5C 243.956,70.2852 243.29,67.9519 243,65.5C 242.333,64.1667 241.333,63.1667 240,62.5C 237.55,57.269 235.383,51.9357 233.5,46.5C 237.07,53.6079 242.07,59.6079 248.5,64.5C 248.719,68.5274 247.552,69.1941 245,66.5C 244.833,67 244.667,67.5 244.5,68C 248.301,75.004 249.801,82.504 249,90.5C 246.968,94.4083 244.134,97.575 240.5,100C 234.565,101.239 228.565,101.739 222.5,101.5C 212.167,100.167 201.833,100.167 191.5,101.5C 177.973,100.464 164.306,99.297 150.5,98C 146.259,97.827 143.092,95.9937 141,92.5C 140.86,94.2555 141.36,95.9222 142.5,97.5C 140.604,98.4656 138.604,98.7989 136.5,98.5C 136.5,98.1667 136.5,97.8333 136.5,97.5C 137.139,96.9032 137.472,96.0698 137.5,95C 132.528,81.6741 134.028,69.1741 142,57.5C 148.735,50.0947 156.068,43.428 164,37.5C 165.303,35.0602 166.47,32.5602 167.5,30C 165.208,25.3025 165.208,20.8025 167.5,16.5 Z"/></g>
<g><path style="opacity:1" fill="#5d4336" d="M 184.5,33.5 C 188.079,35.0369 191.746,36.5369 195.5,38C 196.944,39.126 197.61,40.626 197.5,42.5C 193.714,50.583 192.214,58.9163 193,67.5C 187.43,74.0673 180.93,79.5673 173.5,84C 161.451,85.116 150.117,82.9493 139.5,77.5C 139.5,74.8333 139.5,72.1667 139.5,69.5C 139.402,67.4471 140.069,65.7804 141.5,64.5C 141.489,66.5466 141.156,68.5466 140.5,70.5C 141.423,72.6357 143.089,73.8024 145.5,74C 153.355,75.021 161.189,76.1876 169,77.5C 172.425,77.0806 175.091,75.4139 177,72.5C 179.548,68.7373 181.548,64.7373 183,60.5C 187.746,55.2549 191.912,49.5883 195.5,43.5C 193.305,40.1439 190.138,38.4772 186,38.5C 179.568,40.4009 173.401,43.0676 167.5,46.5C 166.713,47.2421 166.047,48.0754 165.5,49C 159.982,50.8708 154.649,53.0375 149.5,55.5C 151.336,52.8324 153.669,50.6657 156.5,49C 165.727,43.5552 175.06,38.3886 184.5,33.5 Z"/></g>
<g><path style="opacity:1" fill="#674c3f" d="M 141.5,64.5 C 142.08,62.2512 143.413,60.5846 145.5,59.5C 145.833,57.1667 147.167,55.8333 149.5,55.5C 154.649,53.0375 159.982,50.8708 165.5,49C 166.047,48.0754 166.713,47.2421 167.5,46.5C 173.401,43.0676 179.568,40.4009 186,38.5C 190.138,38.4772 193.305,40.1439 195.5,43.5C 191.912,49.5883 187.746,55.2549 183,60.5C 181.548,64.7373 179.548,68.7373 177,72.5C 175.091,75.4139 172.425,77.0806 169,77.5C 161.189,76.1876 153.355,75.021 145.5,74C 143.089,73.8024 141.423,72.6357 140.5,70.5C 141.156,68.5466 141.489,66.5466 141.5,64.5 Z"/></g>
<g><path style="opacity:1" fill="#6e5345" d="M 145.5,59.5 C 149.217,58.4726 152.55,56.6393 155.5,54C 164.877,50.8883 174.044,47.3883 183,43.5C 186.077,43.4293 188.91,44.5959 191.5,47C 188.021,50.1495 184.854,53.6495 182,57.5C 179.973,62.8643 176.473,67.031 171.5,70C 161.802,70.1231 152.136,69.6231 142.5,68.5C 142.34,66.8008 142.506,65.1341 143,63.5C 144.481,62.5291 145.315,61.1958 145.5,59.5 Z"/></g>
<g><path style="opacity:1" fill="#533b2e" d="M 233.5,46.5 C 235.383,51.9357 237.55,57.269 240,62.5C 241.333,63.1667 242.333,64.1667 243,65.5C 243.29,67.9519 243.956,70.2852 245,72.5C 248.112,81.612 246.612,89.7787 240.5,97C 232.111,101.481 223.777,101.648 215.5,97.5C 217.559,96.0488 218.559,94.0488 218.5,91.5C 220.593,89.4696 222.426,87.1362 224,84.5C 225.496,77.1934 226.83,69.86 228,62.5C 229.08,60.0038 230.414,57.6705 232,55.5C 232.798,52.2893 232.298,49.2893 230.5,46.5C 231.425,45.4376 232.425,45.4376 233.5,46.5 Z"/></g>
<g><path style="opacity:1" fill="#402c20" d="M 85.5,55.5 C 86.1667,55.5 86.5,55.8333 86.5,56.5C 85.804,66.1621 85.6373,75.8288 86,85.5C 89.0903,93.4288 93.2569,100.762 98.5,107.5C 88.6217,118.876 84.955,131.876 87.5,146.5C 86.9492,149.807 86.6159,153.14 86.5,156.5C 85.8333,158.5 85.1667,160.5 84.5,162.5C 83.6165,160.09 82.4498,157.757 81,155.5C 75.8076,132.954 72.6409,110.121 71.5,87C 72.0338,83.8923 73.0338,81.059 74.5,78.5C 74.41,80.6963 74.0767,82.863 73.5,85C 74.4721,87.7816 75.3054,90.615 76,93.5C 75.9579,107.919 76.9579,122.252 79,136.5C 79.7496,140.419 81.083,144.085 83,147.5C 83.4011,142.989 83.9011,138.489 84.5,134C 84.27,127.15 83.9367,120.317 83.5,113.5C 86.2856,110.644 86.1189,107.978 83,105.5C 82.8271,101.281 81.8271,97.2815 80,93.5C 77.6793,80.2449 79.5127,67.5782 85.5,55.5 Z"/></g>
<g><path style="opacity:0.968" fill="#3c281d" d="M 248.5,53.5 C 249.793,52.3552 250.959,52.6885 252,54.5C 263.411,69.6548 271.911,86.3214 277.5,104.5C 272.977,120.936 269.144,137.603 266,154.5C 265.828,158.487 265.994,162.487 266.5,166.5C 266.599,170.029 265.933,173.363 264.5,176.5C 260.785,162.47 257.951,148.137 256,133.5C 255.434,131.277 254.6,129.277 253.5,127.5C 252.365,121.891 249.699,117.224 245.5,113.5C 245.267,111.938 244.6,110.605 243.5,109.5C 243.196,108.85 242.863,108.183 242.5,107.5C 245.625,103.878 248.125,99.8783 250,95.5C 250.209,86.6026 251.043,77.7692 252.5,69C 251.218,63.6841 249.885,58.5175 248.5,53.5 Z"/></g>
<g><path style="opacity:1" fill="#27160b" d="M 248.5,53.5 C 249.885,58.5175 251.218,63.6841 252.5,69C 251.043,77.7692 250.209,86.6026 250,95.5C 248.125,99.8783 245.625,103.878 242.5,107.5C 242.863,108.183 243.196,108.85 243.5,109.5C 236.743,106.028 229.743,103.361 222.5,101.5C 228.565,101.739 234.565,101.239 240.5,100C 244.134,97.575 246.968,94.4083 249,90.5C 249.801,82.504 248.301,75.004 244.5,68C 244.667,67.5 244.833,67 245,66.5C 247.552,69.1941 248.719,68.5274 248.5,64.5C 248.5,60.8333 248.5,57.1667 248.5,53.5 Z"/></g>
<g><path style="opacity:1" fill="#442f23" d="M 166.5,13.5 C 161.823,17.7112 160.156,22.8779 161.5,29C 161.427,36.4997 158.093,41.833 151.5,45C 146.644,50.8542 141.477,56.3542 136,61.5C 135.548,64.8772 134.882,68.2105 134,71.5C 133.864,79.224 133.698,86.8907 133.5,94.5C 133,94.8333 132.5,95.1667 132,95.5C 120.433,89.5334 108.266,85.3667 95.5,83C 91.5071,80.1806 89.8404,76.3473 90.5,71.5C 90.2322,69.901 90.5655,68.5676 91.5,67.5C 91.7811,69.9628 92.7811,72.1295 94.5,74C 106.034,77.0075 116.701,81.8408 126.5,88.5C 128.399,78.9645 131.232,69.6311 135,60.5C 139.853,53.4683 145.186,46.8016 151,40.5C 152.951,33.3146 155.284,26.3146 158,19.5C 160.629,17.1118 163.462,15.1118 166.5,13.5 Z"/></g>
<g><path style="opacity:1" fill="#51392c" d="M 252.5,58.5 C 260.356,69.9003 265.189,82.567 267,96.5C 267.666,109.522 267.333,122.522 266,135.5C 265.438,140.083 264.105,144.417 262,148.5C 260.883,147.051 260.216,145.384 260,143.5C 259.632,134.742 258.632,126.075 257,117.5C 254.699,114.212 252.866,110.712 251.5,107C 256.057,94.9628 257.89,82.4628 257,69.5C 255.511,65.8521 254.011,62.1855 252.5,58.5 Z"/></g>
<g><path style="opacity:1" fill="#463125" d="M 85.5,55.5 C 79.5127,67.5782 77.6793,80.2449 80,93.5C 81.8271,97.2815 82.8271,101.281 83,105.5C 86.1189,107.978 86.2856,110.644 83.5,113.5C 83.9367,120.317 84.27,127.15 84.5,134C 83.9011,138.489 83.4011,142.989 83,147.5C 81.083,144.085 79.7496,140.419 79,136.5C 76.9579,122.252 75.9579,107.919 76,93.5C 75.3054,90.615 74.4721,87.7816 73.5,85C 74.0767,82.863 74.41,80.6963 74.5,78.5C 75.038,76.8828 75.3713,75.2161 75.5,73.5C 77.6012,66.631 80.7678,60.2977 85,54.5C 85.3988,54.7284 85.5654,55.0618 85.5,55.5 Z"/></g>
<g><path style="opacity:1" fill="#3c291d" d="M 205.5,11.5 C 209.908,19.6665 213.241,28.3331 215.5,37.5C 219.197,51.928 220.364,66.5947 219,81.5C 215.395,95.5746 206.228,101.575 191.5,99.5C 180.579,97.6305 169.579,96.4639 158.5,96C 152.967,95.1174 147.633,93.6174 142.5,91.5C 140.342,88.8515 139.008,85.8515 138.5,82.5C 142.001,87.091 146.667,89.9243 152.5,91C 161.116,92.1725 169.783,92.8392 178.5,93C 188.389,95.9537 198.389,96.287 208.5,94C 210.96,92.5422 213.127,90.7089 215,88.5C 217.316,75.9328 217.983,63.2661 217,50.5C 216.255,45.8538 213.421,43.6871 208.5,44C 207.283,42.3523 206.45,40.519 206,38.5C 204.876,29.4654 204.709,20.4654 205.5,11.5 Z"/></g>
<g><path style="opacity:1" fill="#38251a" d="M 166.5,12.5 C 167.434,13.5676 167.768,14.901 167.5,16.5C 165.208,20.8025 165.208,25.3025 167.5,30C 166.47,32.5602 165.303,35.0602 164,37.5C 156.068,43.428 148.735,50.0947 142,57.5C 134.028,69.1741 132.528,81.6741 137.5,95C 137.472,96.0698 137.139,96.9032 136.5,97.5C 123.57,95.4572 110.57,93.6239 97.5,92C 95.1236,88.9663 92.7903,85.9663 90.5,83C 89.3171,79.0087 89.3171,75.1754 90.5,71.5C 89.8404,76.3473 91.5071,80.1806 95.5,83C 108.266,85.3667 120.433,89.5334 132,95.5C 132.5,95.1667 133,94.8333 133.5,94.5C 133.698,86.8907 133.864,79.224 134,71.5C 134.882,68.2105 135.548,64.8772 136,61.5C 141.477,56.3542 146.644,50.8542 151.5,45C 158.093,41.833 161.427,36.4997 161.5,29C 160.156,22.8779 161.823,17.7112 166.5,13.5C 166.5,13.1667 166.5,12.8333 166.5,12.5 Z"/></g>
<g><path style="opacity:1" fill="#2e1c11" d="M 86.5,56.5 C 87.8988,59.6293 89.5655,62.6293 91.5,65.5C 91.5,66.1667 91.5,66.8333 91.5,67.5C 90.5655,68.5676 90.2322,69.901 90.5,71.5C 89.3171,75.1754 89.3171,79.0087 90.5,83C 92.7903,85.9663 95.1236,88.9663 97.5,92C 110.57,93.6239 123.57,95.4572 136.5,97.5C 136.5,97.8333 136.5,98.1667 136.5,98.5C 126.92,98.2264 117.42,98.8931 108,100.5C 105.833,100.333 103.667,100.167 101.5,100C 100.094,97.5507 98.0937,96.5507 95.5,97C 97.2932,99.7953 99.4598,102.295 102,104.5C 102.062,106.115 102.229,107.448 102.5,108.5C 100.42,110.573 98.7536,112.907 97.5,115.5C 94.6146,118.986 92.6146,122.986 91.5,127.5C 89.1553,133.498 87.822,139.832 87.5,146.5C 84.955,131.876 88.6217,118.876 98.5,107.5C 93.2569,100.762 89.0903,93.4288 86,85.5C 85.6373,75.8288 85.804,66.1621 86.5,56.5 Z"/></g>
<g><path style="opacity:1" fill="#210f04" d="M 191.5,101.5 C 170.492,101.333 149.492,101.166 128.5,101C 119.221,101.65 110.554,104.15 102.5,108.5C 102.229,107.448 102.062,106.115 102,104.5C 99.4598,102.295 97.2932,99.7953 95.5,97C 98.0937,96.5507 100.094,97.5507 101.5,100C 103.667,100.167 105.833,100.333 108,100.5C 117.42,98.8931 126.92,98.2264 136.5,98.5C 138.604,98.7989 140.604,98.4656 142.5,97.5C 141.36,95.9222 140.86,94.2555 141,92.5C 143.092,95.9937 146.259,97.827 150.5,98C 164.306,99.297 177.973,100.464 191.5,101.5 Z"/></g>
<g><path style="opacity:1" fill="#2d1b12" d="M 75.5,73.5 C 75.3713,75.2161 75.038,76.8828 74.5,78.5C 73.0338,81.059 72.0338,83.8923 71.5,87C 72.6409,110.121 75.8076,132.954 81,155.5C 82.4498,157.757 83.6165,160.09 84.5,162.5C 83.5621,171.551 82.5621,180.551 81.5,189.5C 81.1667,189.5 80.8333,189.5 80.5,189.5C 80.5,188.833 80.1667,188.5 79.5,188.5C 78.0424,184.959 76.8757,181.292 76,177.5C 71.6365,153.653 68.4698,129.653 66.5,105.5C 66.0983,93.7603 69.0983,83.0936 75.5,73.5 Z"/></g>
<g><path style="opacity:1" fill="#835636" d="M 191.5,101.5 C 201.833,100.167 212.167,100.167 222.5,101.5C 229.743,103.361 236.743,106.028 243.5,109.5C 244.6,110.605 245.267,111.938 245.5,113.5C 239.717,109.679 233.384,107.012 226.5,105.5C 220.358,103.419 214.025,102.086 207.5,101.5C 190.916,103.881 174.249,104.881 157.5,104.5C 154.833,104.5 152.167,104.5 149.5,104.5C 147.626,103.715 145.626,103.048 143.5,102.5C 130.343,102.47 117.343,104.637 104.5,109C 102.297,111.372 99.9635,113.539 97.5,115.5C 98.7536,112.907 100.42,110.573 102.5,108.5C 110.554,104.15 119.221,101.65 128.5,101C 149.492,101.166 170.492,101.333 191.5,101.5 Z"/></g>
<g><path style="opacity:1" fill="#e8ba9c" d="M 143.5,102.5 C 145.626,103.048 147.626,103.715 149.5,104.5C 144.703,104.121 140.036,104.621 135.5,106C 132.627,109.577 130.127,113.411 128,117.5C 127.333,119.5 127.333,121.5 128,123.5C 130.215,128.1 133.048,132.266 136.5,136C 145.499,138.678 153.832,142.678 161.5,148C 167.019,150.835 172.686,151.169 178.5,149C 182.007,146.746 185.673,144.746 189.5,143C 196.455,141.08 203.289,138.914 210,136.5C 212.305,131.391 214.471,126.224 216.5,121C 214.787,114.905 211.787,109.571 207.5,105C 205.866,104.506 204.199,104.34 202.5,104.5C 215.418,101.158 222.085,106.324 222.5,120C 221.528,122.782 220.695,125.615 220,128.5C 219.8,132.334 219.633,136.001 219.5,139.5C 214.566,139.229 209.9,139.896 205.5,141.5C 202.213,142.161 198.88,142.661 195.5,143C 194.944,143.383 194.611,143.883 194.5,144.5C 191.652,145.772 188.652,146.605 185.5,147C 179.731,153.256 172.731,155.256 164.5,153C 154.096,144.412 142.096,140.245 128.5,140.5C 122.833,140.5 117.167,140.5 111.5,140.5C 112.474,130.09 113.974,119.757 116,109.5C 116.833,108.667 117.667,107.833 118.5,107C 126.727,104.851 135.06,103.351 143.5,102.5 Z"/></g>
<g><path style="opacity:1" fill="#eec2a5" d="M 149.5,104.5 C 152.167,104.5 154.833,104.5 157.5,104.5C 157.5,104.833 157.5,105.167 157.5,105.5C 153.033,105.133 148.7,105.633 144.5,107C 140.631,110.534 137.131,114.367 134,118.5C 133.333,120.167 133.333,121.833 134,123.5C 140.287,131.118 147.787,137.285 156.5,142C 161.307,144.405 166.307,146.239 171.5,147.5C 184.133,143.016 195.799,136.682 206.5,128.5C 210.477,125.112 211.311,121.112 209,116.5C 206.537,113.035 203.704,109.869 200.5,107C 195.934,105.691 191.267,105.191 186.5,105.5C 191.64,104.512 196.974,104.179 202.5,104.5C 204.199,104.34 205.866,104.506 207.5,105C 211.787,109.571 214.787,114.905 216.5,121C 214.471,126.224 212.305,131.391 210,136.5C 203.289,138.914 196.455,141.08 189.5,143C 185.673,144.746 182.007,146.746 178.5,149C 172.686,151.169 167.019,150.835 161.5,148C 153.832,142.678 145.499,138.678 136.5,136C 133.048,132.266 130.215,128.1 128,123.5C 127.333,121.5 127.333,119.5 128,117.5C 130.127,113.411 132.627,109.577 135.5,106C 140.036,104.621 144.703,104.121 149.5,104.5 Z"/></g>
<g><path style="opacity:1" fill="#f3c7ab" d="M 157.5,105.5 C 167.167,105.5 176.833,105.5 186.5,105.5C 191.267,105.191 195.934,105.691 200.5,107C 203.704,109.869 206.537,113.035 209,116.5C 211.311,121.112 210.477,125.112 206.5,128.5C 195.799,136.682 184.133,143.016 171.5,147.5C 166.307,146.239 161.307,144.405 156.5,142C 147.787,137.285 140.287,131.118 134,123.5C 133.333,121.833 133.333,120.167 134,118.5C 137.131,114.367 140.631,110.534 144.5,107C 148.7,105.633 153.033,105.133 157.5,105.5 Z"/></g>
<g><path style="opacity:1" fill="#dfb191" d="M 226.5,105.5 C 228.081,107.086 230.081,108.086 232.5,108.5C 233.298,110.078 233.798,111.744 234,113.5C 233.724,122.807 233.558,132.141 233.5,141.5C 228.951,140.237 224.284,139.57 219.5,139.5C 219.633,136.001 219.8,132.334 220,128.5C 220.695,125.615 221.528,122.782 222.5,120C 222.085,106.324 215.418,101.158 202.5,104.5C 196.974,104.179 191.64,104.512 186.5,105.5C 176.833,105.5 167.167,105.5 157.5,105.5C 157.5,105.167 157.5,104.833 157.5,104.5C 174.249,104.881 190.916,103.881 207.5,101.5C 214.025,102.086 220.358,103.419 226.5,105.5 Z"/></g>
<g><path style="opacity:1" fill="#f6ccb1" d="M 157.5,106.5 C 167.506,106.334 177.506,106.5 187.5,107C 192.621,110.453 197.454,114.286 202,118.5C 203.603,122.679 202.436,126.179 198.5,129C 191.956,133.773 184.956,137.773 177.5,141C 163.707,141.86 152.207,137.026 143,126.5C 141,123.833 141,121.167 143,118.5C 147.732,114.258 152.565,110.258 157.5,106.5 Z"/></g>
<g><path style="opacity:1" fill="#fad0b6" d="M 168.5,110.5 C 171.941,110.301 175.274,110.801 178.5,112C 183.001,114.416 187.334,117.083 191.5,120C 193.978,121.938 194.145,124.105 192,126.5C 181.289,137.726 169.456,139.226 156.5,131C 152.533,128.614 151.367,125.447 153,121.5C 157.536,116.775 162.702,113.108 168.5,110.5 Z"/></g>
<g><path style="opacity:1" fill="#ce9f7e" d="M 143.5,102.5 C 135.06,103.351 126.727,104.851 118.5,107C 117.667,107.833 116.833,108.667 116,109.5C 113.974,119.757 112.474,130.09 111.5,140.5C 117.167,140.5 122.833,140.5 128.5,140.5C 128.5,140.833 128.5,141.167 128.5,141.5C 121.445,141.27 114.445,141.77 107.5,143C 104.334,145 101.668,147.5 99.5,150.5C 98.5,150.5 97.5,150.5 96.5,150.5C 96.2087,138.783 96.542,127.116 97.5,115.5C 99.9635,113.539 102.297,111.372 104.5,109C 117.343,104.637 130.343,102.47 143.5,102.5 Z"/></g>
<g><path style="opacity:1" fill="#cc9d7c" d="M 226.5,105.5 C 233.384,107.012 239.717,109.679 245.5,113.5C 246.564,116.865 247.564,120.198 248.5,123.5C 247.816,130.819 247.316,138.152 247,145.5C 247.03,148.361 246.197,150.695 244.5,152.5C 241.339,147.181 236.672,144.015 230.5,143C 222.236,141.63 213.903,141.13 205.5,141.5C 209.9,139.896 214.566,139.229 219.5,139.5C 224.284,139.57 228.951,140.237 233.5,141.5C 233.558,132.141 233.724,122.807 234,113.5C 233.798,111.744 233.298,110.078 232.5,108.5C 230.081,108.086 228.081,107.086 226.5,105.5 Z"/></g>
<g><path style="opacity:1" fill="#bf8f6f" d="M 245.5,113.5 C 249.699,117.224 252.365,121.891 253.5,127.5C 254.697,146.214 254.03,164.88 251.5,183.5C 251.921,189.868 252.588,196.202 253.5,202.5C 251.847,202.34 250.514,201.674 249.5,200.5C 248.886,185.03 247.72,169.696 246,154.5C 245.479,157.629 243.979,157.962 241.5,155.5C 242.5,155.5 243.5,155.5 244.5,155.5C 244.5,154.5 244.5,153.5 244.5,152.5C 246.197,150.695 247.03,148.361 247,145.5C 247.316,138.152 247.816,130.819 248.5,123.5C 247.564,120.198 246.564,116.865 245.5,113.5 Z"/></g>
<g><path style="opacity:1" fill="#27160c" d="M 277.5,104.5 C 278.302,105.952 278.802,107.618 279,109.5C 279.717,131.613 278.384,153.613 275,175.5C 273.981,179.912 272.814,184.245 271.5,188.5C 271.5,189.167 271.167,189.5 270.5,189.5C 269.88,187.023 268.88,187.023 267.5,189.5C 267.167,189.167 266.833,188.833 266.5,188.5C 265.92,185.689 265.254,183.023 264.5,180.5C 264.5,179.167 264.5,177.833 264.5,176.5C 265.933,173.363 266.599,170.029 266.5,166.5C 265.994,162.487 265.828,158.487 266,154.5C 269.144,137.603 272.977,120.936 277.5,104.5 Z"/></g>
<g><path style="opacity:1" fill="#bd8d6d" d="M 97.5,115.5 C 96.542,127.116 96.2087,138.783 96.5,150.5C 97.5,150.5 98.5,150.5 99.5,150.5C 98.0582,151.82 97.3915,153.486 97.5,155.5C 98.8333,155.5 100.167,155.5 101.5,155.5C 100.855,156.812 99.8549,157.812 98.5,158.5C 97.6922,160.423 97.1922,162.423 97,164.5C 95.9576,175.475 95.2909,186.475 95,197.5C 93.4844,205.6 91.9844,213.933 90.5,222.5C 90.9835,231.789 93.9835,240.122 99.5,247.5C 96.9228,247.545 94.9228,246.545 93.5,244.5C 86.8536,230.05 85.6869,215.05 90,199.5C 90.769,180.488 90.6023,161.488 89.5,142.5C 90.0598,137.476 90.7265,132.476 91.5,127.5C 92.6146,122.986 94.6146,118.986 97.5,115.5 Z"/></g>
<g><path style="opacity:1" fill="#4a3d34" d="M 128.5,141.5 C 133.536,141.588 138.536,142.088 143.5,143C 144.056,143.383 144.389,143.883 144.5,144.5C 144.621,147.541 143.121,149.208 140,149.5C 130.869,148.374 121.702,148.207 112.5,149C 107.92,149.772 104.253,151.939 101.5,155.5C 100.167,155.5 98.8333,155.5 97.5,155.5C 97.3915,153.486 98.0582,151.82 99.5,150.5C 101.668,147.5 104.334,145 107.5,143C 114.445,141.77 121.445,141.27 128.5,141.5 Z"/></g>
<g><path style="opacity:1" fill="#493c34" d="M 205.5,141.5 C 213.903,141.13 222.236,141.63 230.5,143C 236.672,144.015 241.339,147.181 244.5,152.5C 244.5,153.5 244.5,154.5 244.5,155.5C 243.5,155.5 242.5,155.5 241.5,155.5C 238.957,153.06 235.957,151.394 232.5,150.5C 231.391,149.71 230.058,149.21 228.5,149C 218.786,148.193 209.119,148.359 199.5,149.5C 197.64,148.74 195.973,147.74 194.5,146.5C 194.5,145.833 194.5,145.167 194.5,144.5C 194.611,143.883 194.944,143.383 195.5,143C 198.88,142.661 202.213,142.161 205.5,141.5 Z"/></g>
<g><path style="opacity:1" fill="#e0b395" d="M 128.5,141.5 C 128.5,141.167 128.5,140.833 128.5,140.5C 142.096,140.245 154.096,144.412 164.5,153C 172.731,155.256 179.731,153.256 185.5,147C 188.652,146.605 191.652,145.772 194.5,144.5C 194.5,145.167 194.5,145.833 194.5,146.5C 194.5,148.167 194.5,149.833 194.5,151.5C 185.706,153.128 180.373,158.295 178.5,167C 179.721,177.747 180.555,188.58 181,199.5C 182.87,201.405 184.37,203.572 185.5,206C 186.5,206.667 187.5,206.667 188.5,206C 189.308,204.294 190.641,203.461 192.5,203.5C 193.167,203.5 193.5,203.833 193.5,204.5C 192.076,206.515 191.41,208.848 191.5,211.5C 182.996,211.499 178.496,207.166 178,198.5C 177.633,192.796 176.966,187.13 176,181.5C 172.969,172.653 169.303,172.32 165,180.5C 163.727,187.779 162.893,195.112 162.5,202.5C 160.907,203.348 159.74,204.681 159,206.5C 158.536,205.906 158.369,205.239 158.5,204.5C 159.09,203.234 159.59,201.901 160,200.5C 160.667,187.5 160.667,174.5 160,161.5C 157.52,154.93 152.853,150.93 146,149.5C 145.802,147.618 145.302,145.952 144.5,144.5C 144.389,143.883 144.056,143.383 143.5,143C 138.536,142.088 133.536,141.588 128.5,141.5 Z"/></g>
<g><path style="opacity:1" fill="#cfa181" d="M 144.5,144.5 C 145.302,145.952 145.802,147.618 146,149.5C 152.853,150.93 157.52,154.93 160,161.5C 160.667,174.5 160.667,187.5 160,200.5C 159.59,201.901 159.09,203.234 158.5,204.5C 157.406,205.582 156.073,206.248 154.5,206.5C 152.823,205.813 151.156,205.146 149.5,204.5C 149.5,204.167 149.5,203.833 149.5,203.5C 149.833,202.833 150.167,202.167 150.5,201.5C 156.401,199.152 158.734,194.652 157.5,188C 157.849,178.889 156.016,170.389 152,162.5C 147.817,157.204 142.817,155.871 137,158.5C 136.333,159.833 136.333,161.167 137,162.5C 138.839,167.679 141.339,172.512 144.5,177C 144.167,177.5 143.833,178 143.5,178.5C 138.817,176.16 133.817,174.827 128.5,174.5C 125.5,174.5 122.5,174.5 119.5,174.5C 125.344,169.149 128.844,162.482 130,154.5C 131.491,152.996 133.324,152.163 135.5,152C 127.675,149.261 119.675,148.761 111.5,150.5C 109.862,158.589 107.696,166.589 105,174.5C 104.833,175.5 104.667,176.5 104.5,177.5C 104.64,179.03 105.307,180.03 106.5,180.5C 105.42,182.996 104.086,185.33 102.5,187.5C 100.96,189.838 100.294,192.505 100.5,195.5C 99.0735,197.148 98.2401,199.148 98,201.5C 97.6667,205.833 97.3333,210.167 97,214.5C 93.8384,219.777 92.8384,225.443 94,231.5C 97.2456,237.659 100.746,243.659 104.5,249.5C 102.302,249.88 100.635,249.213 99.5,247.5C 93.9835,240.122 90.9835,231.789 90.5,222.5C 91.9844,213.933 93.4844,205.6 95,197.5C 95.2909,186.475 95.9576,175.475 97,164.5C 97.1922,162.423 97.6922,160.423 98.5,158.5C 99.8549,157.812 100.855,156.812 101.5,155.5C 104.253,151.939 107.92,149.772 112.5,149C 121.702,148.207 130.869,148.374 140,149.5C 143.121,149.208 144.621,147.541 144.5,144.5 Z"/></g>
<g><path style="opacity:1" fill="#d8aa8b" d="M 119.5,174.5 C 114.756,175.707 110.423,177.707 106.5,180.5C 105.307,180.03 104.64,179.03 104.5,177.5C 104.667,176.5 104.833,175.5 105,174.5C 107.696,166.589 109.862,158.589 111.5,150.5C 119.675,148.761 127.675,149.261 135.5,152C 133.324,152.163 131.491,152.996 130,154.5C 128.844,162.482 125.344,169.149 119.5,174.5 Z"/></g>
<g><path style="opacity:1" fill="#daac8d" d="M 232.5,150.5 C 232.338,152.527 232.505,154.527 233,156.5C 236.931,165.22 239.098,174.22 239.5,183.5C 237.336,181.787 235.003,180.454 232.5,179.5C 230.566,178.89 228.899,177.89 227.5,176.5C 224.728,170.038 221.061,164.038 216.5,158.5C 218.062,155.386 217.729,152.553 215.5,150C 221.182,149.531 226.848,149.698 232.5,150.5 Z"/></g>
<g><path style="opacity:1" fill="#d2a486" d="M 194.5,146.5 C 195.973,147.74 197.64,148.74 199.5,149.5C 209.119,148.359 218.786,148.193 228.5,149C 230.058,149.21 231.391,149.71 232.5,150.5C 226.848,149.698 221.182,149.531 215.5,150C 217.729,152.553 218.062,155.386 216.5,158.5C 221.061,164.038 224.728,170.038 227.5,176.5C 225.597,176.204 223.93,175.537 222.5,174.5C 216.321,173.833 209.988,173.167 203.5,172.5C 206.894,167.045 207.227,161.545 204.5,156C 198.517,155.125 192.85,155.959 187.5,158.5C 185.762,162.328 184.262,166.328 183,170.5C 182.333,180.167 182.333,189.833 183,199.5C 184.713,203.571 187.546,204.571 191.5,202.5C 192.167,202.5 192.5,202.833 192.5,203.5C 190.641,203.461 189.308,204.294 188.5,206C 187.5,206.667 186.5,206.667 185.5,206C 184.37,203.572 182.87,201.405 181,199.5C 180.555,188.58 179.721,177.747 178.5,167C 180.373,158.295 185.706,153.128 194.5,151.5C 194.5,149.833 194.5,148.167 194.5,146.5 Z"/></g>
<g><path style="opacity:1" fill="#cb9d7d" d="M 232.5,150.5 C 235.957,151.394 238.957,153.06 241.5,155.5C 243.979,157.962 245.479,157.629 246,154.5C 247.72,169.696 248.886,185.03 249.5,200.5C 247.167,200.5 244.833,200.5 242.5,200.5C 242.923,198.219 242.256,196.552 240.5,195.5C 239.833,193.5 239.167,191.5 238.5,189.5C 239.573,188.749 239.74,187.749 239,186.5C 236.628,184.297 234.461,181.963 232.5,179.5C 235.003,180.454 237.336,181.787 239.5,183.5C 239.098,174.22 236.931,165.22 233,156.5C 232.505,154.527 232.338,152.527 232.5,150.5 Z"/></g>
<g><path style="opacity:1" fill="#c29373" d="M 150.5,201.5 C 150.5,199.5 150.5,197.5 150.5,195.5C 150.341,191.326 148.675,187.992 145.5,185.5C 144.5,185.167 143.833,184.5 143.5,183.5C 143.063,181.926 142.063,180.759 140.5,180C 136.525,177.854 132.525,176.02 128.5,174.5C 133.817,174.827 138.817,176.16 143.5,178.5C 143.833,178 144.167,177.5 144.5,177C 141.339,172.512 138.839,167.679 137,162.5C 136.333,161.167 136.333,159.833 137,158.5C 142.817,155.871 147.817,157.204 152,162.5C 156.016,170.389 157.849,178.889 157.5,188C 158.734,194.652 156.401,199.152 150.5,201.5 Z"/></g>
<g><path style="opacity:1" fill="#c49576" d="M 222.5,174.5 C 207.7,173.077 197.367,179.077 191.5,192.5C 191.543,193.416 191.876,194.083 192.5,194.5C 191.612,197.054 191.279,199.721 191.5,202.5C 187.546,204.571 184.713,203.571 183,199.5C 182.333,189.833 182.333,180.167 183,170.5C 184.262,166.328 185.762,162.328 187.5,158.5C 192.85,155.959 198.517,155.125 204.5,156C 207.227,161.545 206.894,167.045 203.5,172.5C 209.988,173.167 216.321,173.833 222.5,174.5 Z"/></g>
<g><path style="opacity:1" fill="#b1afae" d="M 121.5,177.5 C 127.242,175.931 132.575,176.931 137.5,180.5C 137.062,180.435 136.728,180.601 136.5,181C 138.464,182.451 139.797,184.284 140.5,186.5C 138.037,184.539 135.703,182.372 133.5,180C 130.649,178.711 127.649,178.211 124.5,178.5C 123.791,177.596 122.791,177.263 121.5,177.5 Z"/></g>
<g><path style="opacity:1" fill="#30231a" d="M 222.5,174.5 C 223.93,175.537 225.597,176.204 227.5,176.5C 228.899,177.89 230.566,178.89 232.5,179.5C 234.461,181.963 236.628,184.297 239,186.5C 239.74,187.749 239.573,188.749 238.5,189.5C 228.209,175.598 215.543,173.098 200.5,182C 196.439,185.291 193.773,189.457 192.5,194.5C 191.876,194.083 191.543,193.416 191.5,192.5C 197.367,179.077 207.7,173.077 222.5,174.5 Z"/></g>
<g><path style="opacity:1" fill="#312720" d="M 229.5,198.5 C 228.292,199.234 226.959,199.567 225.5,199.5C 224.5,199.5 223.5,199.5 222.5,199.5C 226.606,190.91 223.94,185.577 214.5,183.5C 212.97,183.64 211.97,184.307 211.5,185.5C 206.584,183.407 204.584,185.074 205.5,190.5C 203.695,195.237 205.029,198.904 209.5,201.5C 208.07,202.537 206.403,203.204 204.5,203.5C 203.833,203.5 203.167,203.5 202.5,203.5C 196.416,192.389 199.083,184.222 210.5,179C 219.66,177.164 225.826,180.664 229,189.5C 229.498,192.482 229.665,195.482 229.5,198.5 Z"/></g>
<g><path style="opacity:1" fill="#35271e" d="M 119.5,174.5 C 122.5,174.5 125.5,174.5 128.5,174.5C 132.525,176.02 136.525,177.854 140.5,180C 142.063,180.759 143.063,181.926 143.5,183.5C 141.483,182.471 139.483,181.471 137.5,180.5C 132.575,176.931 127.242,175.931 121.5,177.5C 112.947,178.431 106.947,182.764 103.5,190.5C 102.596,189.791 102.263,188.791 102.5,187.5C 104.086,185.33 105.42,182.996 106.5,180.5C 110.423,177.707 114.756,175.707 119.5,174.5 Z"/></g>
<g><path style="opacity:1" fill="#030201" d="M 136.5,195.5 C 135.937,198.295 134.604,200.628 132.5,202.5C 131.292,201.766 129.959,201.433 128.5,201.5C 125.727,200.343 122.727,199.676 119.5,199.5C 117.701,196.495 117.034,193.162 117.5,189.5C 123.264,192.607 125.264,190.94 123.5,184.5C 132.309,182.75 136.643,186.417 136.5,195.5 Z"/></g>
<g><path style="opacity:1" fill="#030201" d="M 222.5,199.5 C 218.124,199.909 213.79,200.575 209.5,201.5C 205.029,198.904 203.695,195.237 205.5,190.5C 210.676,192.315 212.676,190.648 211.5,185.5C 211.97,184.307 212.97,183.64 214.5,183.5C 223.94,185.577 226.606,190.91 222.5,199.5 Z"/></g>
<g><path style="opacity:1" fill="#d0a181" d="M 79.5,188.5 C 80.1667,188.5 80.5,188.833 80.5,189.5C 80.8333,189.5 81.1667,189.5 81.5,189.5C 81.2478,194.519 80.7478,199.519 80,204.5C 77.2298,199.918 74.7298,195.251 72.5,190.5C 72.6107,189.883 72.944,189.383 73.5,189C 75.4727,188.505 77.4727,188.338 79.5,188.5 Z"/></g>
<g><path style="opacity:1" fill="#dedbda" d="M 121.5,177.5 C 122.791,177.263 123.791,177.596 124.5,178.5C 120.088,179.07 116.922,181.403 115,185.5C 112.362,189.94 111.862,194.607 113.5,199.5C 112.167,199.5 110.833,199.5 109.5,199.5C 108.081,198.549 106.415,198.216 104.5,198.5C 103.833,197.833 103.167,197.167 102.5,196.5C 102.517,194.435 102.85,192.435 103.5,190.5C 106.947,182.764 112.947,178.431 121.5,177.5 Z"/></g>
<g><path style="opacity:1" fill="#976c4e" d="M 86.5,156.5 C 86.5,182.5 86.5,208.5 86.5,234.5C 85.8423,233.602 85.1757,232.602 84.5,231.5C 83.9986,233.655 82.9986,235.322 81.5,236.5C 79.9731,236.573 78.9731,235.906 78.5,234.5C 79.5832,234.539 80.5832,234.873 81.5,235.5C 81.8333,233.833 82.1667,232.167 82.5,230.5C 79.6099,221.093 77.6099,211.426 76.5,201.5C 74.8333,201.5 73.1667,201.5 71.5,201.5C 71.5,204.5 71.5,207.5 71.5,210.5C 70.8356,207.854 70.5022,205.021 70.5,202C 70.2857,197.867 70.9524,194.034 72.5,190.5C 74.7298,195.251 77.2298,199.918 80,204.5C 80.7478,199.519 81.2478,194.519 81.5,189.5C 82.5621,180.551 83.5621,171.551 84.5,162.5C 85.1667,160.5 85.8333,158.5 86.5,156.5 Z"/></g>
<g><path style="opacity:1" fill="#6d5443" d="M 145.5,185.5 C 148.675,187.992 150.341,191.326 150.5,195.5C 148.458,192.386 146.791,189.052 145.5,185.5 Z"/></g>
<g><path style="opacity:1" fill="#271d16" d="M 124.5,178.5 C 127.649,178.211 130.649,178.711 133.5,180C 135.703,182.372 138.037,184.539 140.5,186.5C 140.5,187.5 140.5,188.5 140.5,189.5C 140.881,191.942 140.214,192.609 138.5,191.5C 137.828,192.949 137.161,194.282 136.5,195.5C 136.643,186.417 132.309,182.75 123.5,184.5C 119.651,184.019 117.651,185.686 117.5,189.5C 117.034,193.162 117.701,196.495 119.5,199.5C 117.5,199.5 115.5,199.5 113.5,199.5C 111.862,194.607 112.362,189.94 115,185.5C 116.922,181.403 120.088,179.07 124.5,178.5 Z"/></g>
<g><path style="opacity:1" fill="#e7e7e7" d="M 123.5,184.5 C 125.264,190.94 123.264,192.607 117.5,189.5C 117.651,185.686 119.651,184.019 123.5,184.5 Z"/></g>
<g><path style="opacity:1" fill="#80604b" d="M 102.5,187.5 C 102.263,188.791 102.596,189.791 103.5,190.5C 102.85,192.435 102.517,194.435 102.5,196.5C 101.833,196.167 101.167,195.833 100.5,195.5C 100.294,192.505 100.96,189.838 102.5,187.5 Z"/></g>
<g><path style="opacity:1" fill="#969594" d="M 140.5,186.5 C 142.977,191.262 143.144,196.262 141,201.5C 140.617,202.056 140.117,202.389 139.5,202.5C 141.428,198.137 141.761,193.804 140.5,189.5C 140.5,188.5 140.5,187.5 140.5,186.5 Z"/></g>
<g><path style="opacity:1" fill="#ebebeb" d="M 137.5,180.5 C 139.483,181.471 141.483,182.471 143.5,183.5C 143.833,184.5 144.5,185.167 145.5,185.5C 146.791,189.052 148.458,192.386 150.5,195.5C 150.5,197.5 150.5,199.5 150.5,201.5C 150.167,202.167 149.833,202.833 149.5,203.5C 148.609,204.11 147.609,204.443 146.5,204.5C 144.167,204.5 141.833,204.5 139.5,204.5C 139.5,203.833 139.5,203.167 139.5,202.5C 140.117,202.389 140.617,202.056 141,201.5C 143.144,196.262 142.977,191.262 140.5,186.5C 139.797,184.284 138.464,182.451 136.5,181C 136.728,180.601 137.062,180.435 137.5,180.5 Z"/></g>
<g><path style="opacity:1" fill="#d4a585" d="M 271.5,188.5 C 273.527,188.338 275.527,188.505 277.5,189C 278.056,189.383 278.389,189.883 278.5,190.5C 276.888,193.131 275.221,195.798 273.5,198.5C 272.957,201.817 271.29,203.151 268.5,202.5C 268.28,197.9 268.946,193.567 270.5,189.5C 271.167,189.5 271.5,189.167 271.5,188.5 Z"/></g>
<g><path style="opacity:1" fill="#504742" d="M 140.5,189.5 C 141.761,193.804 141.428,198.137 139.5,202.5C 139.5,203.167 139.5,203.833 139.5,204.5C 137.035,204.233 134.701,203.566 132.5,202.5C 134.604,200.628 135.937,198.295 136.5,195.5C 137.161,194.282 137.828,192.949 138.5,191.5C 140.214,192.609 140.881,191.942 140.5,189.5 Z"/></g>
<g><path style="opacity:1" fill="#a77959" d="M 253.5,127.5 C 254.6,129.277 255.434,131.277 256,133.5C 257.951,148.137 260.785,162.47 264.5,176.5C 264.5,177.833 264.5,179.167 264.5,180.5C 265.247,200.091 262.914,219.257 257.5,238C 251.82,245.88 249.486,254.713 250.5,264.5C 249.349,259.35 249.183,254.016 250,248.5C 251.391,238.542 252.391,228.542 253,218.5C 255.557,213.921 256.057,209.255 254.5,204.5C 254.167,203.833 253.833,203.167 253.5,202.5C 252.588,196.202 251.921,189.868 251.5,183.5C 254.03,164.88 254.697,146.214 253.5,127.5 Z"/></g>
<g><path style="opacity:1" fill="#e3e2e2" d="M 238.5,189.5 C 239.167,191.5 239.833,193.5 240.5,195.5C 240.389,196.117 240.056,196.617 239.5,197C 236.243,198.043 232.91,198.543 229.5,198.5C 229.665,195.482 229.498,192.482 229,189.5C 225.826,180.664 219.66,177.164 210.5,179C 199.083,184.222 196.416,192.389 202.5,203.5C 199.713,204.477 196.713,204.81 193.5,204.5C 193.5,203.833 193.167,203.5 192.5,203.5C 192.5,202.833 192.167,202.5 191.5,202.5C 191.279,199.721 191.612,197.054 192.5,194.5C 193.773,189.457 196.439,185.291 200.5,182C 215.543,173.098 228.209,175.598 238.5,189.5 Z"/></g>
<g><path style="opacity:1" fill="#e3e3e2" d="M 211.5,185.5 C 212.676,190.648 210.676,192.315 205.5,190.5C 204.584,185.074 206.584,183.407 211.5,185.5 Z"/></g>
<g><path style="opacity:1" fill="#ecc0a3" d="M 109.5,199.5 C 110.833,199.5 112.167,199.5 113.5,199.5C 115.5,199.5 117.5,199.5 119.5,199.5C 122.727,199.676 125.727,200.343 128.5,201.5C 126.533,201.261 124.699,201.594 123,202.5C 121.599,200.808 119.766,200.141 117.5,200.5C 116.46,203.403 115.127,206.236 113.5,209C 116.388,214.922 115.888,220.422 112,225.5C 111.182,228.227 111.348,230.894 112.5,233.5C 118.179,234.418 123.846,235.418 129.5,236.5C 139.904,235.927 145.404,230.594 146,220.5C 145.167,219 144,217.833 142.5,217C 147.115,213.383 147.448,209.717 143.5,206C 144.737,205.768 145.737,205.268 146.5,204.5C 147.609,204.443 148.609,204.11 149.5,203.5C 149.5,203.833 149.5,204.167 149.5,204.5C 148.363,209.121 149.363,213.287 152.5,217C 151.102,224.127 148.102,230.46 143.5,236C 142.167,236.667 140.833,237.333 139.5,238C 128.818,238.832 118.151,238.666 107.5,237.5C 101.77,231.307 102.27,225.64 109,220.5C 109.548,215.298 108.715,210.298 106.5,205.5C 107.136,203.22 108.136,201.22 109.5,199.5 Z"/></g>
<g><path style="opacity:1" fill="#f6cbb0" d="M 128.5,201.5 C 129.959,201.433 131.292,201.766 132.5,202.5C 134.701,203.566 137.035,204.233 139.5,204.5C 141.833,204.5 144.167,204.5 146.5,204.5C 145.737,205.268 144.737,205.768 143.5,206C 147.448,209.717 147.115,213.383 142.5,217C 144,217.833 145.167,219 146,220.5C 145.404,230.594 139.904,235.927 129.5,236.5C 123.846,235.418 118.179,234.418 112.5,233.5C 111.348,230.894 111.182,228.227 112,225.5C 115.888,220.422 116.388,214.922 113.5,209C 115.127,206.236 116.46,203.403 117.5,200.5C 119.766,200.141 121.599,200.808 123,202.5C 124.699,201.594 126.533,201.261 128.5,201.5 Z"/></g>
<g><path style="opacity:1" fill="#e1b394" d="M 104.5,198.5 C 106.415,198.216 108.081,198.549 109.5,199.5C 108.136,201.22 107.136,203.22 106.5,205.5C 108.715,210.298 109.548,215.298 109,220.5C 102.27,225.64 101.77,231.307 107.5,237.5C 118.151,238.666 128.818,238.832 139.5,238C 140.833,237.333 142.167,236.667 143.5,236C 148.102,230.46 151.102,224.127 152.5,217C 149.363,213.287 148.363,209.121 149.5,204.5C 151.156,205.146 152.823,205.813 154.5,206.5C 156.073,206.248 157.406,205.582 158.5,204.5C 158.369,205.239 158.536,205.906 159,206.5C 159.74,204.681 160.907,203.348 162.5,202.5C 161.51,205.151 160.51,207.817 159.5,210.5C 160.545,212.205 161.878,213.705 163.5,215C 170.167,215.333 176.833,215.667 183.5,216C 187.472,219.205 189.972,223.371 191,228.5C 194.191,231.031 197.358,233.531 200.5,236C 210.494,236.5 220.494,236.666 230.5,236.5C 229.776,240.504 228.943,244.504 228,248.5C 225.635,245.131 222.468,242.964 218.5,242C 213.845,241.501 209.179,241.334 204.5,241.5C 198.439,242.515 192.439,243.848 186.5,245.5C 185.274,245.48 184.274,245.147 183.5,244.5C 187.149,242.1 188.816,238.6 188.5,234C 187.737,228.562 185.237,224.062 181,220.5C 180.308,221.025 179.808,221.692 179.5,222.5C 183.515,229.732 181.848,234.899 174.5,238C 169.713,238.879 165.047,238.545 160.5,237C 159.299,236.097 158.465,234.931 158,233.5C 158.181,229.453 158.015,225.453 157.5,221.5C 156.579,223.756 154.912,224.756 152.5,224.5C 151.504,229.463 151.337,234.463 152,239.5C 153.708,242.276 156.208,243.943 159.5,244.5C 152.691,245.479 146.025,244.479 139.5,241.5C 135.272,239.975 130.772,239.308 126,239.5C 120.391,239.417 114.891,240.083 109.5,241.5C 99.5378,235.751 98.0378,228.417 105,219.5C 105.923,217.966 106.423,216.299 106.5,214.5C 104.912,209.29 104.245,203.957 104.5,198.5 Z"/></g>
<g><path style="opacity:1" fill="#996a4a" d="M 267.5,230.5 C 267.5,231.833 267.5,233.167 267.5,234.5C 268.978,234.762 270.311,234.429 271.5,233.5C 272.453,230.57 274.12,228.237 276.5,226.5C 275.833,228.5 275.167,230.5 274.5,232.5C 273.24,234.367 271.573,235.7 269.5,236.5C 268.167,236.5 266.833,236.5 265.5,236.5C 267.806,225.297 268.806,213.963 268.5,202.5C 271.29,203.151 272.957,201.817 273.5,198.5C 274.815,197.524 276.148,196.524 277.5,195.5C 277.833,196 278.167,196.5 278.5,197C 276.869,198.926 275.035,200.76 273,202.5C 271.263,211.871 269.43,221.204 267.5,230.5 Z"/></g>
<g><path style="opacity:1" fill="#ddaf8f" d="M 100.5,195.5 C 101.167,195.833 101.833,196.167 102.5,196.5C 103.167,197.167 103.833,197.833 104.5,198.5C 104.245,203.957 104.912,209.29 106.5,214.5C 106.423,216.299 105.923,217.966 105,219.5C 98.0378,228.417 99.5378,235.751 109.5,241.5C 114.891,240.083 120.391,239.417 126,239.5C 130.772,239.308 135.272,239.975 139.5,241.5C 134.305,241.179 129.305,241.513 124.5,242.5C 120.244,243.572 116.578,245.739 113.5,249C 110.518,249.498 107.518,249.665 104.5,249.5C 100.746,243.659 97.2456,237.659 94,231.5C 92.8384,225.443 93.8384,219.777 97,214.5C 97.3333,210.167 97.6667,205.833 98,201.5C 98.2401,199.148 99.0735,197.148 100.5,195.5 Z"/></g>
<g><path style="opacity:1" fill="#edc0a3" d="M 193.5,204.5 C 196.713,204.81 199.713,204.477 202.5,203.5C 203.167,203.5 203.833,203.5 204.5,203.5C 204.047,204.458 203.381,205.292 202.5,206C 195.391,205.351 193.058,208.351 195.5,215C 192.329,218.856 191.829,223.022 194,227.5C 197.716,230.552 201.882,232.719 206.5,234C 213.841,234.222 221.174,233.889 228.5,233C 230.396,231.192 230.896,229.025 230,226.5C 228.045,224.089 226.211,221.589 224.5,219C 226.713,215.574 228.38,211.908 229.5,208C 227.965,205.287 226.632,202.454 225.5,199.5C 226.959,199.567 228.292,199.234 229.5,198.5C 232.91,198.543 236.243,198.043 239.5,197C 240.056,196.617 240.389,196.117 240.5,195.5C 242.256,196.552 242.923,198.219 242.5,200.5C 240.326,200.75 238.659,201.75 237.5,203.5C 235.935,205.509 234.935,207.843 234.5,210.5C 232.841,219.103 231.508,227.77 230.5,236.5C 220.494,236.666 210.494,236.5 200.5,236C 197.358,233.531 194.191,231.031 191,228.5C 189.972,223.371 187.472,219.205 183.5,216C 176.833,215.667 170.167,215.333 163.5,215C 161.878,213.705 160.545,212.205 159.5,210.5C 160.51,207.817 161.51,205.151 162.5,202.5C 162.893,195.112 163.727,187.779 165,180.5C 169.303,172.32 172.969,172.653 176,181.5C 176.966,187.13 177.633,192.796 178,198.5C 178.496,207.166 182.996,211.499 191.5,211.5C 191.41,208.848 192.076,206.515 193.5,204.5 Z"/></g>
<g><path style="opacity:1" fill="#f6cbb1" d="M 222.5,199.5 C 223.5,199.5 224.5,199.5 225.5,199.5C 226.632,202.454 227.965,205.287 229.5,208C 228.38,211.908 226.713,215.574 224.5,219C 226.211,221.589 228.045,224.089 230,226.5C 230.896,229.025 230.396,231.192 228.5,233C 221.174,233.889 213.841,234.222 206.5,234C 201.882,232.719 197.716,230.552 194,227.5C 191.829,223.022 192.329,218.856 195.5,215C 193.058,208.351 195.391,205.351 202.5,206C 203.381,205.292 204.047,204.458 204.5,203.5C 206.403,203.204 208.07,202.537 209.5,201.5C 213.79,200.575 218.124,199.909 222.5,199.5 Z"/></g>
<g><path style="opacity:1" fill="#a77b5d" d="M 91.5,127.5 C 90.7265,132.476 90.0598,137.476 89.5,142.5C 90.6023,161.488 90.769,180.488 90,199.5C 85.6869,215.05 86.8536,230.05 93.5,244.5C 95.0397,249.232 96.8731,253.899 99,258.5C 102.82,259.798 104.986,262.465 105.5,266.5C 108.93,266.786 111.264,268.62 112.5,272C 116.633,275.131 120.466,278.631 124,282.5C 124.399,282.272 124.565,281.938 124.5,281.5C 127.258,284.678 129.258,288.345 130.5,292.5C 130.44,293.043 130.107,293.376 129.5,293.5C 127.972,292.139 126.305,290.972 124.5,290C 115.934,281.105 107.767,271.939 100,262.5C 94.1292,253.76 89.6292,244.427 86.5,234.5C 86.5,208.5 86.5,182.5 86.5,156.5C 86.6159,153.14 86.9492,149.807 87.5,146.5C 87.822,139.832 89.1553,133.498 91.5,127.5 Z"/></g>
<g><path style="opacity:1" fill="#af805f" d="M 278.5,190.5 C 279.966,191.347 280.8,192.68 281,194.5C 281.816,199.684 281.65,204.684 280.5,209.5C 281.741,199.984 279.575,198.65 274,205.5C 273.667,209.5 273.333,213.5 273,217.5C 270.66,221.707 268.826,226.041 267.5,230.5C 269.43,221.204 271.263,211.871 273,202.5C 275.035,200.76 276.869,198.926 278.5,197C 278.167,196.5 277.833,196 277.5,195.5C 276.148,196.524 274.815,197.524 273.5,198.5C 275.221,195.798 276.888,193.131 278.5,190.5 Z"/></g>
<g><path style="opacity:1" fill="#815d44" d="M 264.5,180.5 C 265.254,183.023 265.92,185.689 266.5,188.5C 266.833,188.833 267.167,189.167 267.5,189.5C 268.88,187.023 269.88,187.023 270.5,189.5C 268.946,193.567 268.28,197.9 268.5,202.5C 268.806,213.963 267.806,225.297 265.5,236.5C 266.833,236.5 268.167,236.5 269.5,236.5C 268.122,237.234 266.622,237.901 265,238.5C 262.258,245.564 259.425,252.564 256.5,259.5C 255.833,259.5 255.5,259.833 255.5,260.5C 254.662,260.842 254.328,261.508 254.5,262.5C 253.833,262.5 253.5,262.833 253.5,263.5C 252.895,265.481 251.895,265.815 250.5,264.5C 249.486,254.713 251.82,245.88 257.5,238C 262.914,219.257 265.247,200.091 264.5,180.5 Z"/></g>
<g><path style="opacity:1" fill="#d3a383" d="M 280.5,209.5 C 279.948,215.373 278.615,221.039 276.5,226.5C 274.12,228.237 272.453,230.57 271.5,233.5C 270.311,234.429 268.978,234.762 267.5,234.5C 267.5,233.167 267.5,231.833 267.5,230.5C 268.826,226.041 270.66,221.707 273,217.5C 273.333,213.5 273.667,209.5 274,205.5C 279.575,198.65 281.741,199.984 280.5,209.5 Z"/></g>
<g><path style="opacity:1" fill="#cc9c7b" d="M 78.5,234.5 C 74.316,227.108 71.9827,219.108 71.5,210.5C 71.5,207.5 71.5,204.5 71.5,201.5C 73.1667,201.5 74.8333,201.5 76.5,201.5C 77.6099,211.426 79.6099,221.093 82.5,230.5C 82.1667,232.167 81.8333,233.833 81.5,235.5C 80.5832,234.873 79.5832,234.539 78.5,234.5 Z"/></g>
<g><path style="opacity:1" fill="#bf906f" d="M 183.5,244.5 C 181.833,244.5 180.167,244.5 178.5,244.5C 181.139,242.691 183.306,240.358 185,237.5C 185.808,235.421 185.641,233.421 184.5,231.5C 183.266,234.304 181.266,236.471 178.5,238C 173.028,240.285 167.362,240.952 161.5,240C 156.869,237.184 154.535,233.017 154.5,227.5C 153.167,231.167 153.167,234.833 154.5,238.5C 156.164,240.491 157.831,242.491 159.5,244.5C 156.208,243.943 153.708,242.276 152,239.5C 151.337,234.463 151.504,229.463 152.5,224.5C 154.912,224.756 156.579,223.756 157.5,221.5C 158.015,225.453 158.181,229.453 158,233.5C 158.465,234.931 159.299,236.097 160.5,237C 165.047,238.545 169.713,238.879 174.5,238C 181.848,234.899 183.515,229.732 179.5,222.5C 179.808,221.692 180.308,221.025 181,220.5C 185.237,224.062 187.737,228.562 188.5,234C 188.816,238.6 187.149,242.1 183.5,244.5 Z"/></g>
<g><path style="opacity:1" fill="#f2c6aa" d="M 165.5,222.5 C 175.299,221.44 178.299,225.273 174.5,234C 170.789,234.825 167.122,234.659 163.5,233.5C 162.16,232.312 161.493,230.812 161.5,229C 162.205,226.458 163.539,224.292 165.5,222.5 Z"/></g>
<g><path style="opacity:1" fill="#a37c63" d="M 124.5,242.5 C 127.119,242.232 129.619,242.565 132,243.5C 132.863,245.749 132.363,247.582 130.5,249C 131.056,249.383 131.389,249.883 131.5,250.5C 130.662,250.842 130.328,251.508 130.5,252.5C 129.442,251.4 128.608,250.066 128,248.5C 126.519,249.471 125.685,250.804 125.5,252.5C 125.672,253.492 125.338,254.158 124.5,254.5C 124.88,252.302 124.213,250.635 122.5,249.5C 122.468,246.924 123.135,244.591 124.5,242.5 Z"/></g>
<g><path style="opacity:1" fill="#8d5e3d" d="M 178.5,244.5 C 172.167,245.833 165.833,245.833 159.5,244.5C 157.831,242.491 156.164,240.491 154.5,238.5C 153.167,234.833 153.167,231.167 154.5,227.5C 154.535,233.017 156.869,237.184 161.5,240C 167.362,240.952 173.028,240.285 178.5,238C 181.266,236.471 183.266,234.304 184.5,231.5C 185.641,233.421 185.808,235.421 185,237.5C 183.306,240.358 181.139,242.691 178.5,244.5 Z"/></g>
<g><path style="opacity:1" fill="#906241" d="M 303.5,224.5 C 304.262,227.152 303.762,229.818 302,232.5C 295.696,243.281 288.863,253.614 281.5,263.5C 281.201,261.396 281.534,259.396 282.5,257.5C 286.609,254.564 289.776,250.897 292,246.5C 295.253,238.779 299.086,231.446 303.5,224.5 Z"/></g>
<g><path style="opacity:1" fill="#b89075" d="M 234.5,210.5 C 235.16,211.964 235.493,213.631 235.5,215.5C 233.274,229.47 231.107,243.47 229,257.5C 228.33,260.174 227.163,262.507 225.5,264.5C 226.671,260.615 226.337,256.781 224.5,253C 222.743,249.922 220.41,249.089 217.5,250.5C 216.778,249.449 215.778,248.782 214.5,248.5C 212.5,249.167 210.5,249.833 208.5,250.5C 206.049,249.169 203.716,247.502 201.5,245.5C 202.524,244.148 203.524,242.815 204.5,241.5C 209.179,241.334 213.845,241.501 218.5,242C 222.468,242.964 225.635,245.131 228,248.5C 228.943,244.504 229.776,240.504 230.5,236.5C 231.508,227.77 232.841,219.103 234.5,210.5 Z"/></g>
<g><path style="opacity:1" fill="#cfa88f" d="M 124.5,242.5 C 129.305,241.513 134.305,241.179 139.5,241.5C 146.025,244.479 152.691,245.479 159.5,244.5C 165.833,245.833 172.167,245.833 178.5,244.5C 180.167,244.5 181.833,244.5 183.5,244.5C 184.274,245.147 185.274,245.48 186.5,245.5C 192.439,243.848 198.439,242.515 204.5,241.5C 203.524,242.815 202.524,244.148 201.5,245.5C 203.716,247.502 206.049,249.169 208.5,250.5C 182.822,258.468 157.155,258.468 131.5,250.5C 131.389,249.883 131.056,249.383 130.5,249C 132.363,247.582 132.863,245.749 132,243.5C 129.619,242.565 127.119,242.232 124.5,242.5 Z"/></g>
<g><path style="opacity:1" fill="#b69077" d="M 124.5,242.5 C 123.135,244.591 122.468,246.924 122.5,249.5C 121.504,249.414 120.671,249.748 120,250.5C 115.562,257.189 115.395,263.856 119.5,270.5C 120.909,274.316 122.576,277.983 124.5,281.5C 124.565,281.938 124.399,282.272 124,282.5C 120.466,278.631 116.633,275.131 112.5,272C 111.264,268.62 108.93,266.786 105.5,266.5C 104.986,262.465 102.82,259.798 99,258.5C 96.8731,253.899 95.0397,249.232 93.5,244.5C 94.9228,246.545 96.9228,247.545 99.5,247.5C 100.635,249.213 102.302,249.88 104.5,249.5C 107.518,249.665 110.518,249.498 113.5,249C 116.578,245.739 120.244,243.572 124.5,242.5 Z"/></g>
<g><path style="opacity:1" fill="#eac0a6" d="M 218.5,254.5 C 220.589,262.339 218.589,269.006 212.5,274.5C 211.325,274.719 210.325,274.386 209.5,273.5C 210.883,266.634 212.883,259.967 215.5,253.5C 216.417,254.127 217.417,254.461 218.5,254.5 Z"/></g>
<g><path style="opacity:1" fill="#eec3a7" d="M 129.5,274.5 C 127.819,271.797 126.153,269.131 124.5,266.5C 123.257,262.484 123.257,258.484 124.5,254.5C 125.338,254.158 125.672,253.492 125.5,252.5C 126.397,251.402 127.23,251.402 128,252.5C 130.844,259.042 132.678,265.876 133.5,273C 133.167,273.833 132.833,274.667 132.5,275.5C 131.583,274.873 130.583,274.539 129.5,274.5 Z"/></g>
<g><path style="opacity:1" fill="#cd9e7e" d="M 254.5,204.5 C 256.057,209.255 255.557,213.921 253,218.5C 252.391,228.542 251.391,238.542 250,248.5C 249.183,254.016 249.349,259.35 250.5,264.5C 251.895,265.815 252.895,265.481 253.5,263.5C 254.167,263.5 254.5,263.167 254.5,262.5C 255.338,262.158 255.672,261.492 255.5,260.5C 256.167,260.5 256.5,260.167 256.5,259.5C 263.277,251.049 269.277,242.049 274.5,232.5C 277.803,228.349 280.97,224.015 284,219.5C 289.838,213.035 295.671,213.035 301.5,219.5C 301.768,226.304 299.268,231.971 294,236.5C 291.464,244.243 286.964,250.576 280.5,255.5C 279.243,262.014 276.41,267.681 272,272.5C 270.02,277.23 269.02,282.23 269,287.5C 268.243,289.315 267.41,290.981 266.5,292.5C 266.173,287.456 266.506,282.456 267.5,277.5C 270.886,272.619 274.053,267.619 277,262.5C 277.333,260.167 277.667,257.833 278,255.5C 286.224,249.39 291.724,241.39 294.5,231.5C 295.882,229.451 297.548,227.785 299.5,226.5C 301.672,220.341 299.338,217.007 292.5,216.5C 290.209,216.622 288.209,217.455 286.5,219C 284.608,225.228 281.441,230.728 277,235.5C 274.827,242.531 271.161,248.531 266,253.5C 263.743,257.683 261.743,262.016 260,266.5C 255.162,272.036 250.829,271.703 247,265.5C 246.833,263.167 246.667,260.833 246.5,258.5C 248.104,244.184 249.604,229.851 251,215.5C 253.311,212.208 254.477,208.542 254.5,204.5 Z M 274.5,232.5 C 269.277,242.049 263.277,251.049 256.5,259.5C 259.425,252.564 262.258,245.564 265,238.5C 266.622,237.901 268.122,237.234 269.5,236.5C 271.573,235.7 273.24,234.367 274.5,232.5 Z"/></g>
<g><path style="opacity:1" fill="#ebc0a4" d="M 299.5,226.5 C 297.548,227.785 295.882,229.451 294.5,231.5C 289.766,234.432 287.266,238.765 287,244.5C 283.333,247.5 279.667,250.5 276,253.5C 275.902,256.522 275.068,259.189 273.5,261.5C 270.967,264.683 267.634,266.349 263.5,266.5C 264.535,262.507 265.702,258.507 267,254.5C 268.378,252.787 270.045,251.453 272,250.5C 276.148,241.538 281.315,233.205 287.5,225.5C 288.292,223.535 288.959,221.535 289.5,219.5C 290.333,219.167 291.167,218.833 292,218.5C 294.149,219.299 296.316,220.133 298.5,221C 299.406,222.699 299.739,224.533 299.5,226.5 Z"/></g>
<g><path style="opacity:1" fill="#e1b497" d="M 242.5,200.5 C 244.833,200.5 247.167,200.5 249.5,200.5C 250.514,201.674 251.847,202.34 253.5,202.5C 253.833,203.167 254.167,203.833 254.5,204.5C 254.477,208.542 253.311,212.208 251,215.5C 249.604,229.851 248.104,244.184 246.5,258.5C 246.667,260.833 246.833,263.167 247,265.5C 250.829,271.703 255.162,272.036 260,266.5C 261.743,262.016 263.743,257.683 266,253.5C 271.161,248.531 274.827,242.531 277,235.5C 281.441,230.728 284.608,225.228 286.5,219C 288.209,217.455 290.209,216.622 292.5,216.5C 299.338,217.007 301.672,220.341 299.5,226.5C 299.739,224.533 299.406,222.699 298.5,221C 296.316,220.133 294.149,219.299 292,218.5C 291.167,218.833 290.333,219.167 289.5,219.5C 288.959,221.535 288.292,223.535 287.5,225.5C 281.315,233.205 276.148,241.538 272,250.5C 270.045,251.453 268.378,252.787 267,254.5C 265.702,258.507 264.535,262.507 263.5,266.5C 267.634,266.349 270.967,264.683 273.5,261.5C 271.687,266.166 269.187,270.5 266,274.5C 265.333,277.167 264.667,279.833 264,282.5C 262.414,284.67 261.08,287.004 260,289.5C 251.815,286.374 243.315,284.708 234.5,284.5C 236.631,283.686 238.964,283.186 241.5,283C 243.336,281.581 245.336,280.414 247.5,279.5C 247.833,278.167 248.167,276.833 248.5,275.5C 247.666,272.124 246.499,268.79 245,265.5C 244.346,259.148 244.512,252.815 245.5,246.5C 245.568,242.736 243.735,240.736 240,240.5C 237.966,240.354 236.299,241.02 235,242.5C 234.686,250.56 233.853,258.56 232.5,266.5C 229.87,271.565 227.537,276.732 225.5,282C 226.056,283.011 226.722,283.844 227.5,284.5C 225.856,284.286 224.356,284.62 223,285.5C 222.833,284.667 222.667,283.833 222.5,283C 224.591,277.716 226.091,272.216 227,266.5C 228.333,265.833 229.333,264.833 230,263.5C 232.54,256.407 233.874,249.073 234,241.5C 234.419,240.328 235.085,239.328 236,238.5C 236.503,227.115 237.336,215.781 238.5,204.5C 238.376,203.893 238.043,203.56 237.5,203.5C 238.659,201.75 240.326,200.75 242.5,200.5 Z M 274.5,232.5 C 269.277,242.049 263.277,251.049 256.5,259.5C 259.425,252.564 262.258,245.564 265,238.5C 266.622,237.901 268.122,237.234 269.5,236.5C 271.573,235.7 273.24,234.367 274.5,232.5 Z"/></g>
<g><path style="opacity:1" fill="#f0c5aa" d="M 242.5,203.5 C 249.672,202.49 252.172,205.49 250,212.5C 248.92,215.37 247.753,218.203 246.5,221C 247.018,222.626 247.352,224.293 247.5,226C 246.605,228.82 245.771,231.654 245,234.5C 243.225,237.044 241.392,237.044 239.5,234.5C 238.508,230.217 238.174,225.884 238.5,221.5C 239.675,221.719 240.675,221.386 241.5,220.5C 239.898,214.607 240.232,208.94 242.5,203.5 Z"/></g>
<g><path style="opacity:1" fill="#d1a281" d="M 298.5,274.5 C 298.7,281.167 297.367,287.5 294.5,293.5C 291.03,296.394 287.03,297.227 282.5,296C 279.559,294.688 276.726,293.188 274,291.5C 273.192,289.577 272.692,287.577 272.5,285.5C 274.6,279.18 277.267,273.18 280.5,267.5C 288.443,265.143 294.443,267.476 298.5,274.5 Z"/></g>
<g><path style="opacity:1" fill="#805d44" d="M 86.5,234.5 C 89.6292,244.427 94.1292,253.76 100,262.5C 107.767,271.939 115.934,281.105 124.5,290C 126.305,290.972 127.972,292.139 129.5,293.5C 130.107,293.376 130.44,293.043 130.5,292.5C 130.833,292.5 131.167,292.5 131.5,292.5C 133.412,296.417 135.745,300.083 138.5,303.5C 116.706,293.542 100.206,277.876 89,256.5C 86.9284,250.952 85.2617,245.285 84,239.5C 83.3021,238.309 82.4687,237.309 81.5,236.5C 82.9986,235.322 83.9986,233.655 84.5,231.5C 85.1757,232.602 85.8423,233.602 86.5,234.5 Z"/></g>
<g><path style="opacity:1" fill="#ebbda0" d="M 283.5,270.5 C 287.91,270.031 291.91,271.031 295.5,273.5C 297.48,280.538 296.146,286.871 291.5,292.5C 288.894,293.652 286.227,293.818 283.5,293C 280.794,291.452 277.96,290.286 275,289.5C 274.333,287.167 274.333,284.833 275,282.5C 277.106,277.944 279.939,273.944 283.5,270.5 Z"/></g>
<g><path style="opacity:1" fill="#ce9f81" d="M 130.5,252.5 C 131.569,254.969 132.902,257.302 134.5,259.5C 134.995,261.482 135.495,263.482 136,265.5C 140.835,269.371 145.335,273.538 149.5,278C 160.57,281.38 171.903,282.38 183.5,281C 187.918,279.194 192.251,277.194 196.5,275C 198.236,272.056 200.903,269.556 204.5,267.5C 206.46,263.551 208.794,259.884 211.5,256.5C 211.263,255.209 211.596,254.209 212.5,253.5C 213.537,252.07 214.204,250.403 214.5,248.5C 215.778,248.782 216.778,249.449 217.5,250.5C 217.833,251.833 218.167,253.167 218.5,254.5C 217.417,254.461 216.417,254.127 215.5,253.5C 212.883,259.967 210.883,266.634 209.5,273.5C 210.325,274.386 211.325,274.719 212.5,274.5C 205.651,282.255 196.984,286.255 186.5,286.5C 186.082,285.778 185.416,285.278 184.5,285C 180,284.833 175.5,284.667 171,284.5C 162.727,284.607 154.56,285.107 146.5,286C 139.729,283.628 134.062,279.795 129.5,274.5C 130.583,274.539 131.583,274.873 132.5,275.5C 132.833,274.667 133.167,273.833 133.5,273C 132.678,265.876 130.844,259.042 128,252.5C 127.23,251.402 126.397,251.402 125.5,252.5C 125.685,250.804 126.519,249.471 128,248.5C 128.608,250.066 129.442,251.4 130.5,252.5 Z"/></g>
<g><path style="opacity:1" fill="#be8770" d="M 211.5,256.5 C 208.794,259.884 206.46,263.551 204.5,267.5C 200.903,269.556 198.236,272.056 196.5,275C 192.251,277.194 187.918,279.194 183.5,281C 171.903,282.38 160.57,281.38 149.5,278C 145.335,273.538 140.835,269.371 136,265.5C 135.495,263.482 134.995,261.482 134.5,259.5C 134.833,259.5 135.167,259.5 135.5,259.5C 139.374,264.275 144.374,267.275 150.5,268.5C 152.277,269.6 154.277,270.434 156.5,271C 165.833,271.667 175.167,271.667 184.5,271C 187.104,270.61 189.438,269.776 191.5,268.5C 193.579,268.029 195.579,267.363 197.5,266.5C 203.002,264.331 207.669,260.997 211.5,256.5 Z"/></g>
<g><path style="opacity:1" fill="#b6b3af" d="M 191.5,268.5 C 189.438,269.776 187.104,270.61 184.5,271C 175.167,271.667 165.833,271.667 156.5,271C 154.277,270.434 152.277,269.6 150.5,268.5C 148.469,267.461 147.136,265.795 146.5,263.5C 149.187,261.026 152.187,260.859 155.5,263C 154.328,263.419 153.328,264.085 152.5,265C 163.612,264.175 174.778,264.342 186,265.5C 188.241,265.32 188.741,264.487 187.5,263C 194.521,261.488 195.855,263.321 191.5,268.5 Z"/></g>
<g><path style="opacity:1" fill="#8c8a87" d="M 155.5,259.5 C 164.476,260.308 173.476,260.642 182.5,260.5C 187.544,260.173 192.544,260.506 197.5,261.5C 196.948,263.003 196.948,264.669 197.5,266.5C 195.579,267.363 193.579,268.029 191.5,268.5C 195.855,263.321 194.521,261.488 187.5,263C 188.741,264.487 188.241,265.32 186,265.5C 174.778,264.342 163.612,264.175 152.5,265C 153.328,264.085 154.328,263.419 155.5,263C 152.187,260.859 149.187,261.026 146.5,263.5C 144.13,263.017 143.463,261.851 144.5,260C 148.152,259.501 151.818,259.335 155.5,259.5 Z"/></g>
<g><path style="opacity:1" fill="#65615e" d="M 212.5,253.5 C 211.596,254.209 211.263,255.209 211.5,256.5C 207.669,260.997 203.002,264.331 197.5,266.5C 196.948,264.669 196.948,263.003 197.5,261.5C 192.544,260.506 187.544,260.173 182.5,260.5C 192.742,258.697 202.575,255.363 212,250.5C 212.483,251.448 212.649,252.448 212.5,253.5 Z"/></g>
<g><path style="opacity:1" fill="#77726f" d="M 134.5,252.5 C 141.417,255.473 148.417,257.806 155.5,259.5C 151.818,259.335 148.152,259.501 144.5,260C 143.463,261.851 144.13,263.017 146.5,263.5C 147.136,265.795 148.469,267.461 150.5,268.5C 144.374,267.275 139.374,264.275 135.5,259.5C 134.781,257.236 134.448,254.903 134.5,252.5 Z"/></g>
<g><path style="opacity:1" fill="#945d44" d="M 214.5,248.5 C 214.204,250.403 213.537,252.07 212.5,253.5C 212.649,252.448 212.483,251.448 212,250.5C 202.575,255.363 192.742,258.697 182.5,260.5C 173.476,260.642 164.476,260.308 155.5,259.5C 148.417,257.806 141.417,255.473 134.5,252.5C 133.29,252.068 132.29,251.401 131.5,250.5C 157.155,258.468 182.822,258.468 208.5,250.5C 210.5,249.833 212.5,249.167 214.5,248.5 Z"/></g>
<g><path style="opacity:1" fill="#1b100a" d="M 131.5,250.5 C 132.29,251.401 133.29,252.068 134.5,252.5C 134.448,254.903 134.781,257.236 135.5,259.5C 135.167,259.5 134.833,259.5 134.5,259.5C 132.902,257.302 131.569,254.969 130.5,252.5C 130.328,251.508 130.662,250.842 131.5,250.5 Z"/></g>
<g><path style="opacity:1" fill="#d5a686" d="M 237.5,203.5 C 238.043,203.56 238.376,203.893 238.5,204.5C 237.336,215.781 236.503,227.115 236,238.5C 235.085,239.328 234.419,240.328 234,241.5C 233.874,249.073 232.54,256.407 230,263.5C 229.333,264.833 228.333,265.833 227,266.5C 226.091,272.216 224.591,277.716 222.5,283C 222.667,283.833 222.833,284.667 223,285.5C 224.356,284.62 225.856,284.286 227.5,284.5C 229.833,284.5 232.167,284.5 234.5,284.5C 243.315,284.708 251.815,286.374 260,289.5C 261.08,287.004 262.414,284.67 264,282.5C 264.667,279.833 265.333,277.167 266,274.5C 269.187,270.5 271.687,266.166 273.5,261.5C 275.068,259.189 275.902,256.522 276,253.5C 279.667,250.5 283.333,247.5 287,244.5C 287.266,238.765 289.766,234.432 294.5,231.5C 291.724,241.39 286.224,249.39 278,255.5C 277.667,257.833 277.333,260.167 277,262.5C 274.053,267.619 270.886,272.619 267.5,277.5C 266.506,282.456 266.173,287.456 266.5,292.5C 271.613,294.934 276.946,297.1 282.5,299C 284.155,300.444 284.822,302.278 284.5,304.5C 279.686,312.24 272.686,314.74 263.5,312C 261.5,311.667 259.5,311.333 257.5,311C 256.058,310.623 255.058,309.79 254.5,308.5C 254.196,307.85 253.863,307.183 253.5,306.5C 249.541,305.34 245.541,305.173 241.5,306C 235.639,307.787 229.639,308.787 223.5,309C 221.252,310.914 218.752,312.414 216,313.5C 214.523,312.556 213.523,311.223 213,309.5C 212.501,305.179 212.334,300.846 212.5,296.5C 213.833,293.833 215.167,291.167 216.5,288.5C 217.5,288.5 218.5,288.5 219.5,288.5C 219.505,284.466 219.838,280.466 220.5,276.5C 220.5,276.167 220.5,275.833 220.5,275.5C 222.446,271.942 224.113,268.275 225.5,264.5C 227.163,262.507 228.33,260.174 229,257.5C 231.107,243.47 233.274,229.47 235.5,215.5C 235.493,213.631 235.16,211.964 234.5,210.5C 234.935,207.843 235.935,205.509 237.5,203.5 Z M 274.5,232.5 C 269.277,242.049 263.277,251.049 256.5,259.5C 259.425,252.564 262.258,245.564 265,238.5C 266.622,237.901 268.122,237.234 269.5,236.5C 271.573,235.7 273.24,234.367 274.5,232.5 Z"/></g>
<g><path style="opacity:1" fill="#e8bda1" d="M 234.5,284.5 C 232.167,284.5 229.833,284.5 227.5,284.5C 226.722,283.844 226.056,283.011 225.5,282C 227.537,276.732 229.87,271.565 232.5,266.5C 233.853,258.56 234.686,250.56 235,242.5C 236.299,241.02 237.966,240.354 240,240.5C 243.735,240.736 245.568,242.736 245.5,246.5C 244.512,252.815 244.346,259.148 245,265.5C 246.499,268.79 247.666,272.124 248.5,275.5C 248.167,276.833 247.833,278.167 247.5,279.5C 245.336,280.414 243.336,281.581 241.5,283C 238.964,283.186 236.631,283.686 234.5,284.5 Z"/></g>
<g><path style="opacity:1" fill="#674c3f" d="M 225.5,264.5 C 224.113,268.275 222.446,271.942 220.5,275.5C 219.784,275.217 218.951,274.884 218,274.5C 216.824,276.196 215.657,277.862 214.5,279.5C 209.837,284.636 204.837,289.469 199.5,294C 196.621,294.546 193.954,295.379 191.5,296.5C 185.463,296.829 179.463,296.496 173.5,295.5C 178.019,292.676 182.352,289.676 186.5,286.5C 196.984,286.255 205.651,282.255 212.5,274.5C 218.589,269.006 220.589,262.339 218.5,254.5C 218.167,253.167 217.833,251.833 217.5,250.5C 220.41,249.089 222.743,249.922 224.5,253C 226.337,256.781 226.671,260.615 225.5,264.5 Z"/></g>
<g><path style="opacity:1" fill="#ddae8f" d="M 308.5,280.5 C 312.493,281.651 315.493,283.985 317.5,287.5C 317.817,291.702 317.483,295.702 316.5,299.5C 315.516,302.051 314.516,304.718 313.5,307.5C 302.682,310.493 297.182,306.493 297,295.5C 299.442,291.385 301.442,287.052 303,282.5C 304.444,280.845 306.278,280.178 308.5,280.5 Z"/></g>
<g><path style="opacity:1" fill="#654b3d" d="M 124.5,266.5 C 126.153,269.131 127.819,271.797 129.5,274.5C 134.062,279.795 139.729,283.628 146.5,286C 154.56,285.107 162.727,284.607 171,284.5C 175.5,284.667 180,284.833 184.5,285C 185.416,285.278 186.082,285.778 186.5,286.5C 182.352,289.676 178.019,292.676 173.5,295.5C 179.463,296.496 185.463,296.829 191.5,296.5C 185.761,298.431 179.761,299.765 173.5,300.5C 164.846,298.621 156.18,296.787 147.5,295C 141.366,290.911 135.533,286.411 130,281.5C 127.246,276.992 124.746,272.326 122.5,267.5C 122.439,265.279 123.105,264.946 124.5,266.5 Z"/></g>
<g><path style="opacity:1" fill="#b58666" d="M 301.5,219.5 C 302.931,220.78 303.598,222.447 303.5,224.5C 299.086,231.446 295.253,238.779 292,246.5C 289.776,250.897 286.609,254.564 282.5,257.5C 281.534,259.396 281.201,261.396 281.5,263.5C 281.167,264.833 280.833,266.167 280.5,267.5C 277.267,273.18 274.6,279.18 272.5,285.5C 272.692,287.577 273.192,289.577 274,291.5C 276.726,293.188 279.559,294.688 282.5,296C 287.03,297.227 291.03,296.394 294.5,293.5C 297.367,287.5 298.7,281.167 298.5,274.5C 299.927,276.148 300.76,278.148 301,280.5C 303.605,279.186 306.105,279.186 308.5,280.5C 306.278,280.178 304.444,280.845 303,282.5C 301.442,287.052 299.442,291.385 297,295.5C 297.182,306.493 302.682,310.493 313.5,307.5C 314.516,304.718 315.516,302.051 316.5,299.5C 315.975,311.606 309.975,315.439 298.5,311C 293.96,307.443 292.127,302.943 293,297.5C 290.372,300.21 287.539,302.544 284.5,304.5C 284.822,302.278 284.155,300.444 282.5,299C 276.946,297.1 271.613,294.934 266.5,292.5C 267.41,290.981 268.243,289.315 269,287.5C 269.02,282.23 270.02,277.23 272,272.5C 276.41,267.681 279.243,262.014 280.5,255.5C 286.964,250.576 291.464,244.243 294,236.5C 299.268,231.971 301.768,226.304 301.5,219.5 Z"/></g>
<g><path style="opacity:1" fill="#5b4235" d="M 122.5,249.5 C 124.213,250.635 124.88,252.302 124.5,254.5C 123.257,258.484 123.257,262.484 124.5,266.5C 123.105,264.946 122.439,265.279 122.5,267.5C 124.746,272.326 127.246,276.992 130,281.5C 135.533,286.411 141.366,290.911 147.5,295C 156.18,296.787 164.846,298.621 173.5,300.5C 179.761,299.765 185.761,298.431 191.5,296.5C 193.954,295.379 196.621,294.546 199.5,294C 204.837,289.469 209.837,284.636 214.5,279.5C 214.649,280.552 214.483,281.552 214,282.5C 207.669,289.245 200.836,295.411 193.5,301C 178.22,309.287 162.887,309.287 147.5,301C 142.612,295.281 136.946,290.448 130.5,286.5C 128.213,280.907 125.546,275.574 122.5,270.5C 121.5,270.5 120.5,270.5 119.5,270.5C 115.395,263.856 115.562,257.189 120,250.5C 120.671,249.748 121.504,249.414 122.5,249.5 Z"/></g>
<g><path style="opacity:1" fill="#f0c4a8" d="M 225.5,288.5 C 234.884,288.184 244.218,288.684 253.5,290C 262.044,296.604 271.378,301.604 281.5,305C 279.118,308.354 275.785,309.854 271.5,309.5C 269.833,309.333 268.167,309.167 266.5,309C 261.4,307.312 256.4,305.312 251.5,303C 242.482,302.832 233.482,302.332 224.5,301.5C 217.833,296.528 218.167,292.195 225.5,288.5 Z"/></g>
<g><path style="opacity:1" fill="#402d21" d="M 119.5,270.5 C 120.5,270.5 121.5,270.5 122.5,270.5C 125.546,275.574 128.213,280.907 130.5,286.5C 136.946,290.448 142.612,295.281 147.5,301C 162.887,309.287 178.22,309.287 193.5,301C 200.836,295.411 207.669,289.245 214,282.5C 214.483,281.552 214.649,280.552 214.5,279.5C 215.657,277.862 216.824,276.196 218,274.5C 218.951,274.884 219.784,275.217 220.5,275.5C 220.5,275.833 220.5,276.167 220.5,276.5C 217.011,281.47 214.011,286.803 211.5,292.5C 209.087,294.906 207.087,297.572 205.5,300.5C 200.723,303.06 196.056,305.893 191.5,309C 187.198,309.545 183.198,310.878 179.5,313C 174.5,313.667 169.5,313.667 164.5,313C 158.038,311.026 151.705,308.693 145.5,306C 141.229,300.737 136.729,295.904 132,291.5C 131.601,291.728 131.435,292.062 131.5,292.5C 131.167,292.5 130.833,292.5 130.5,292.5C 129.258,288.345 127.258,284.678 124.5,281.5C 122.576,277.983 120.909,274.316 119.5,270.5 Z"/></g>
<g><path style="opacity:1" fill="#c09171" d="M 212.5,296.5 C 212.334,300.846 212.501,305.179 213,309.5C 213.523,311.223 214.523,312.556 216,313.5C 218.752,312.414 221.252,310.914 223.5,309C 229.639,308.787 235.639,307.787 241.5,306C 245.541,305.173 249.541,305.34 253.5,306.5C 253.863,307.183 254.196,307.85 254.5,308.5C 245.79,307.902 238.29,310.569 232,316.5C 231.534,319.312 232.034,321.979 233.5,324.5C 234.857,322.435 236.19,320.435 237.5,318.5C 237.66,320.199 237.494,321.866 237,323.5C 235.122,325.043 233.622,326.876 232.5,329C 228.191,330.198 224.524,329.198 221.5,326C 219.299,325.175 217.466,325.675 216,327.5C 215.503,330.146 215.336,332.813 215.5,335.5C 214.883,335.389 214.383,335.056 214,334.5C 213.223,329.778 213.39,325.111 214.5,320.5C 212.839,315.338 211.505,310.171 210.5,305C 210.36,301.85 211.027,299.017 212.5,296.5 Z"/></g>
<g><path style="opacity:1" fill="#976848" d="M 317.5,287.5 C 318.633,289.055 319.299,290.889 319.5,293C 318.828,297.2 317.994,301.367 317,305.5C 312.509,311.479 308.675,317.812 305.5,324.5C 305.779,321.882 306.446,319.382 307.5,317C 305.19,316.503 302.857,316.337 300.5,316.5C 294.502,315.422 290.336,312.089 288,306.5C 284.042,310.537 279.876,314.204 275.5,317.5C 273.901,317.232 272.568,317.566 271.5,318.5C 267.3,318.81 263.3,318.143 259.5,316.5C 256.133,313.494 252.133,312.16 247.5,312.5C 242.887,312.469 239.553,314.469 237.5,318.5C 236.19,320.435 234.857,322.435 233.5,324.5C 232.034,321.979 231.534,319.312 232,316.5C 238.29,310.569 245.79,307.902 254.5,308.5C 255.058,309.79 256.058,310.623 257.5,311C 259.5,311.333 261.5,311.667 263.5,312C 272.686,314.74 279.686,312.24 284.5,304.5C 287.539,302.544 290.372,300.21 293,297.5C 292.127,302.943 293.96,307.443 298.5,311C 309.975,315.439 315.975,311.606 316.5,299.5C 317.483,295.702 317.817,291.702 317.5,287.5 Z"/></g>
<g><path style="opacity:1" fill="#dcae91" d="M 247.5,312.5 C 252.133,312.16 256.133,313.494 259.5,316.5C 258.127,316.343 256.793,316.51 255.5,317C 251.65,320.549 248.15,324.383 245,328.5C 243.612,327.446 242.112,327.28 240.5,328C 237.726,330.064 235.893,332.564 235,335.5C 235.893,334.919 236.893,334.585 238,334.5C 240.086,335.418 242.253,336.085 244.5,336.5C 243.888,340.163 243.721,343.83 244,347.5C 255.042,352.634 266.209,352.8 277.5,348C 283.434,344.067 287.934,338.9 291,332.5C 292.183,328.726 291.349,325.559 288.5,323C 282.9,321.188 277.233,319.688 271.5,318.5C 272.568,317.566 273.901,317.232 275.5,317.5C 280.179,317.334 284.845,317.501 289.5,318C 291.333,319.833 293.167,321.667 295,323.5C 294.203,330.716 291.37,337.05 286.5,342.5C 279.028,350.444 269.695,354.11 258.5,353.5C 253.385,352.95 248.385,351.783 243.5,350C 241.66,347.174 240.994,344.007 241.5,340.5C 237.326,339.099 232.993,338.266 228.5,338C 227.328,337.581 226.328,336.915 225.5,336C 228.47,335.237 230.97,333.737 233,331.5C 237.345,324.673 242.178,318.34 247.5,312.5 Z"/></g>
<g><path style="opacity:0.953" fill="#231309" d="M 205.5,300.5 C 205.5,300.833 205.5,301.167 205.5,301.5C 204.167,302.167 203.167,303.167 202.5,304.5C 180.884,323.396 159.55,323.062 138.5,303.5C 135.745,300.083 133.412,296.417 131.5,292.5C 131.435,292.062 131.601,291.728 132,291.5C 136.729,295.904 141.229,300.737 145.5,306C 151.705,308.693 158.038,311.026 164.5,313C 169.5,313.667 174.5,313.667 179.5,313C 183.198,310.878 187.198,309.545 191.5,309C 196.056,305.893 200.723,303.06 205.5,300.5 Z"/></g>
<g><path style="opacity:1" fill="#d3a485" d="M 247.5,312.5 C 242.178,318.34 237.345,324.673 233,331.5C 230.97,333.737 228.47,335.237 225.5,336C 226.328,336.915 227.328,337.581 228.5,338C 232.993,338.266 237.326,339.099 241.5,340.5C 240.994,344.007 241.66,347.174 243.5,350C 248.385,351.783 253.385,352.95 258.5,353.5C 269.695,354.11 279.028,350.444 286.5,342.5C 283.463,348.682 278.463,352.516 271.5,354C 273.167,354.333 274.833,354.667 276.5,355C 275.833,355.333 275.167,355.667 274.5,356C 263.434,356.783 252.434,356.283 241.5,354.5C 239.983,354.489 238.816,353.823 238,352.5C 236.533,349.734 234.7,347.234 232.5,345C 227.952,344.193 223.618,342.86 219.5,341C 218.279,338.966 216.945,337.133 215.5,335.5C 215.336,332.813 215.503,330.146 216,327.5C 217.466,325.675 219.299,325.175 221.5,326C 224.524,329.198 228.191,330.198 232.5,329C 233.622,326.876 235.122,325.043 237,323.5C 237.494,321.866 237.66,320.199 237.5,318.5C 239.553,314.469 242.887,312.469 247.5,312.5 Z"/></g>
<g><path style="opacity:1" fill="#d2a384" d="M 300.5,316.5 C 301.919,317.451 303.585,317.784 305.5,317.5C 303.278,324.088 300.445,330.421 297,336.5C 291.608,342.802 286.108,348.968 280.5,355C 275.734,357.871 270.567,359.038 265,358.5C 256.83,358.389 248.996,357.055 241.5,354.5C 252.434,356.283 263.434,356.783 274.5,356C 275.167,355.667 275.833,355.333 276.5,355C 274.833,354.667 273.167,354.333 271.5,354C 278.463,352.516 283.463,348.682 286.5,342.5C 291.37,337.05 294.203,330.716 295,323.5C 293.167,321.667 291.333,319.833 289.5,318C 284.845,317.501 280.179,317.334 275.5,317.5C 279.876,314.204 284.042,310.537 288,306.5C 290.336,312.089 294.502,315.422 300.5,316.5 Z"/></g>
<g><path style="opacity:1" fill="#8b5c3b" d="M 205.5,301.5 C 205.335,311.533 205.835,321.533 207,331.5C 209.283,336.397 211.283,341.397 213,346.5C 227.306,363.214 245.473,369.714 267.5,366C 276.028,364.681 283.028,360.848 288.5,354.5C 293.996,346.366 298.996,338.033 303.5,329.5C 299.92,342.892 292.92,354.059 282.5,363C 271.2,369.476 259.2,371.142 246.5,368C 213.203,360.261 199.203,339.428 204.5,305.5C 204.043,304.702 203.376,304.369 202.5,304.5C 203.167,303.167 204.167,302.167 205.5,301.5 Z"/></g>
<g><path style="opacity:1" fill="#9c6d4d" d="M 211.5,292.5 C 210.227,295.609 208.727,298.609 207,301.5C 206.023,314.949 208.023,327.949 213,340.5C 216.717,344.762 220.55,348.928 224.5,353C 230.334,356.299 236.334,359.466 242.5,362.5C 259.392,367.391 274.725,364.725 288.5,354.5C 283.028,360.848 276.028,364.681 267.5,366C 245.473,369.714 227.306,363.214 213,346.5C 211.283,341.397 209.283,336.397 207,331.5C 205.835,321.533 205.335,311.533 205.5,301.5C 205.5,301.167 205.5,300.833 205.5,300.5C 207.087,297.572 209.087,294.906 211.5,292.5 Z"/></g>
<g><path style="opacity:1" fill="#bb8d6d" d="M 220.5,276.5 C 219.838,280.466 219.505,284.466 219.5,288.5C 218.5,288.5 217.5,288.5 216.5,288.5C 215.167,291.167 213.833,293.833 212.5,296.5C 211.027,299.017 210.36,301.85 210.5,305C 211.505,310.171 212.839,315.338 214.5,320.5C 213.39,325.111 213.223,329.778 214,334.5C 214.383,335.056 214.883,335.389 215.5,335.5C 216.945,337.133 218.279,338.966 219.5,341C 223.618,342.86 227.952,344.193 232.5,345C 234.7,347.234 236.533,349.734 238,352.5C 238.816,353.823 239.983,354.489 241.5,354.5C 248.996,357.055 256.83,358.389 265,358.5C 270.567,359.038 275.734,357.871 280.5,355C 286.108,348.968 291.608,342.802 297,336.5C 300.445,330.421 303.278,324.088 305.5,317.5C 303.585,317.784 301.919,317.451 300.5,316.5C 302.857,316.337 305.19,316.503 307.5,317C 306.446,319.382 305.779,321.882 305.5,324.5C 305.598,326.553 304.931,328.22 303.5,329.5C 298.996,338.033 293.996,346.366 288.5,354.5C 274.725,364.725 259.392,367.391 242.5,362.5C 236.334,359.466 230.334,356.299 224.5,353C 220.55,348.928 216.717,344.762 213,340.5C 208.023,327.949 206.023,314.949 207,301.5C 208.727,298.609 210.227,295.609 211.5,292.5C 214.011,286.803 217.011,281.47 220.5,276.5 Z"/></g>
<g><path style="opacity:1" fill="#e2b598" d="M 259.5,316.5 C 263.3,318.143 267.3,318.81 271.5,318.5C 277.233,319.688 282.9,321.188 288.5,323C 291.349,325.559 292.183,328.726 291,332.5C 287.934,338.9 283.434,344.067 277.5,348C 266.209,352.8 255.042,352.634 244,347.5C 243.721,343.83 243.888,340.163 244.5,336.5C 242.253,336.085 240.086,335.418 238,334.5C 236.893,334.585 235.893,334.919 235,335.5C 235.893,332.564 237.726,330.064 240.5,328C 242.112,327.28 243.612,327.446 245,328.5C 248.15,324.383 251.65,320.549 255.5,317C 256.793,316.51 258.127,316.343 259.5,316.5 Z"/></g>
<g><path style="opacity:1" fill="#eabea3" d="M 260.5,321.5 C 268.102,322.254 275.435,324.087 282.5,327C 284.01,328.351 285.01,330.018 285.5,332C 284.856,335.305 283.356,338.138 281,340.5C 271.062,348.935 259.896,350.769 247.5,346C 246.112,339.456 247.279,333.29 251,327.5C 253.843,324.837 257.009,322.837 260.5,321.5 Z"/></g>
</svg>
