<?xml version="1.0" encoding="UTF-8"?>
<!DOCTYPE svg PUBLIC "-//W3C//DTD SVG 1.1//EN" "http://www.w3.org/Graphics/SVG/1.1/DTD/svg11.dtd">
<svg xmlns="http://www.w3.org/2000/svg" version="1.1" width="512px" height="512px" style="shape-rendering:geometricPrecision; text-rendering:geometricPrecision; image-rendering:optimizeQuality; fill-rule:evenodd; clip-rule:evenodd" xmlns:xlink="http://www.w3.org/1999/xlink">
<g><path style="opacity:0.964" fill="#000000" d="M 511.5,109.5 C 511.5,206.833 511.5,304.167 511.5,401.5C 505.026,430.14 487.359,447.64 458.5,454C 323.167,454.667 187.833,454.667 52.5,454C 23.6405,447.64 5.97384,430.14 -0.5,401.5C -0.5,304.167 -0.5,206.833 -0.5,109.5C 5.35383,83.0125 21.3538,65.8458 47.5,58C 116.798,56.8415 186.131,56.3415 255.5,56.5C 324.869,56.3415 394.202,56.8415 463.5,58C 489.646,65.8458 505.646,83.0125 511.5,109.5 Z M 55.5,81.5 C 188.834,81.3333 322.167,81.5 455.5,82C 461.822,83.3283 467.489,85.9949 472.5,90C 400.545,156.3 328.212,222.134 255.5,287.5C 182.788,222.134 110.455,156.3 38.5,90C 43.7308,86.1023 49.3975,83.269 55.5,81.5 Z M 24.5,112.5 C 32.6236,119.081 40.6236,125.914 48.5,133C 92.7092,174.046 137.043,214.879 181.5,255.5C 129.541,303.157 77.5413,350.824 25.5,398.5C 24.6816,395.893 24.1816,393.226 24,390.5C 23.1865,297.822 23.3531,205.155 24.5,112.5 Z M 484.5,112.5 C 486.22,114.658 487.053,117.325 487,120.5C 487.667,210.5 487.667,300.5 487,390.5C 486.818,393.226 486.318,395.893 485.5,398.5C 433.474,350.805 381.474,303.138 329.5,255.5C 381.487,208.179 433.154,160.513 484.5,112.5 Z M 200.5,272.5 C 216.629,286.793 232.629,301.293 248.5,316C 253.167,318 257.833,318 262.5,316C 278.333,301.5 294.167,287 310,272.5C 364.167,322 418.333,371.5 472.5,421C 467.499,425 461.832,427.666 455.5,429C 322.167,429.667 188.833,429.667 55.5,429C 49.1676,427.666 43.5009,425 38.5,421C 92.696,371.634 146.696,322.134 200.5,272.5 Z"/></g>
</svg>
